<?xml version="1.0" encoding="UTF-8" standalone="no"?>
<!DOCTYPE svg PUBLIC "-//W3C//DTD SVG 1.1//EN"
 "http://www.w3.org/Graphics/SVG/1.1/DTD/svg11.dtd">
<!-- Generated by graphviz version 16.1.0 (20260904.0139)
 -->
<!-- Title: DatabaseManager::getUserRole Pages: 1 -->
<svg width="271pt" height="46pt"
 viewBox="0.00 0.00 271.00 46.00" xmlns="http://www.w3.org/2000/svg" xmlns:xlink="http://www.w3.org/1999/xlink">
<g id="graph0" class="graph" transform="scale(1 1) rotate(0) translate(4 42)">
<title>DatabaseManager::getUserRole</title>
<!-- Node1 -->
<g id="Node000001" class="node">
<title>Node1</title>
<g id="a_Node000001"><a xlink:title="Возвращает роль пользователя по логину.">
<polygon fill="#999999" stroke="#666666" points="156.25,-20 0,-20 0,0 156.25,0 156.25,-20"/>
<text xml:space="preserve" text-anchor="middle" x="78.12" y="-6.5" font-family="Helvetica,sans-Serif" font-size="10.00">DatabaseManager::getUserRole</text>
</a>
</g>
</g>
<!-- Node2 -->
<g id="Node000002" class="node">
<title>Node2</title>
<g id="a_Node000002"><a xlink:href="databasemanager_8cpp.html#a272e7e4a9d59f5cce7c678533de77e73" target="_top" xlink:title="Преобразует строковое имя роли в UserRole.">
<polygon fill="white" stroke="#666666" points="263,-20 192.25,-20 192.25,0 263,0 263,-20"/>
<text xml:space="preserve" text-anchor="middle" x="227.62" y="-6.5" font-family="Helvetica,sans-Serif" font-size="10.00">stringToRole</text>
</a>
</g>
</g>
<!-- Node1&#45;&gt;Node2 -->
<g id="edge1_Node000001_Node000002" class="edge">
<title>Node1&#45;&gt;Node2</title>
<g id="a_edge1_Node000001_Node000002"><a xlink:title=" ">
<path fill="none" stroke="#63b8ff" d="M156.33,-10C164.57,-10 172.75,-10 180.46,-10"/>
<polygon fill="#63b8ff" stroke="#63b8ff" points="180.24,-13.5 190.24,-10 180.24,-6.5 180.24,-13.5"/>
</a>
</g>
</g>
<!-- Node2&#45;&gt;Node2 -->
<g id="edge2_Node000002_Node000002" class="edge">
<title>Node2&#45;&gt;Node2</title>
<g id="a_edge2_Node000002_Node000002"><a xlink:title=" ">
<path fill="none" stroke="#63b8ff" d="M203.87,-20.34C193.72,-28.98 201.64,-38 227.62,-38 241.84,-38 250.64,-35.3 254.05,-31.44"/>
<polygon fill="#63b8ff" stroke="#63b8ff" points="257.47,-30.72 251.73,-21.81 250.67,-32.35 257.47,-30.72"/>
</a>
</g>
</g>
</g>
</svg>
