<?xml version="1.0" encoding="UTF-8" standalone="no"?>
<!DOCTYPE svg PUBLIC "-//W3C//DTD SVG 1.1//EN"
 "http://www.w3.org/Graphics/SVG/1.1/DTD/svg11.dtd">
<!-- Generated by graphviz version 16.1.0 (20260904.0139)
 -->
<!-- Title: MainWindow::onConnected Pages: 1 -->
<svg width="321pt" height="78pt"
 viewBox="0.00 0.00 321.00 78.00" xmlns="http://www.w3.org/2000/svg" xmlns:xlink="http://www.w3.org/1999/xlink">
<g id="graph0" class="graph" transform="scale(1 1) rotate(0) translate(4 74)">
<title>MainWindow::onConnected</title>
<!-- Node1 -->
<g id="Node000001" class="node">
<title>Node1</title>
<g id="a_Node000001"><a xlink:title=" ">
<polygon fill="#999999" stroke="#666666" points="136,-48 0,-48 0,-28 136,-28 136,-48"/>
<text xml:space="preserve" text-anchor="middle" x="68" y="-34.5" font-family="Helvetica,sans-Serif" font-size="10.00">MainWindow::onConnected</text>
</a>
</g>
</g>
<!-- Node2 -->
<g id="Node000002" class="node">
<title>Node2</title>
<g id="a_Node000002"><a xlink:href="class_main_window.html#a0e5d89893a8ae7f1358603a438aae264" target="_top" xlink:title="Добавляет сообщение в журнал обмена.">
<polygon fill="white" stroke="#666666" points="288.12,-70 197.12,-70 197.12,-50 288.12,-50 288.12,-70"/>
<text xml:space="preserve" text-anchor="middle" x="242.62" y="-56.5" font-family="Helvetica,sans-Serif" font-size="10.00">MainWindow::log</text>
</a>
</g>
</g>
<!-- Node1&#45;&gt;Node2 -->
<g id="edge1_Node000001_Node000002" class="edge">
<title>Node1&#45;&gt;Node2</title>
<g id="a_edge1_Node000001_Node000002"><a xlink:title=" ">
<path fill="none" stroke="#63b8ff" d="M136.24,-46.57C152.54,-48.65 169.8,-50.85 185.52,-52.85"/>
<polygon fill="#63b8ff" stroke="#63b8ff" points="184.8,-56.29 195.17,-54.08 185.69,-49.34 184.8,-56.29"/>
</a>
</g>
</g>
<!-- Node3 -->
<g id="Node000003" class="node">
<title>Node3</title>
<g id="a_Node000003"><a xlink:href="class_main_window.html#a22c7b70ffea9a6689abe1299af98436a" target="_top" xlink:title="Обновляет элементы интерфейса при подключении или отключении.">
<polygon fill="white" stroke="#666666" points="313.25,-32 172,-32 172,0 313.25,0 313.25,-32"/>
<text xml:space="preserve" text-anchor="start" x="180" y="-18.5" font-family="Helvetica,sans-Serif" font-size="10.00">MainWindow::setConnection</text>
<text xml:space="preserve" text-anchor="middle" x="242.62" y="-6.5" font-family="Helvetica,sans-Serif" font-size="10.00">State</text>
</a>
</g>
</g>
<!-- Node1&#45;&gt;Node3 -->
<g id="edge2_Node000001_Node000003" class="edge">
<title>Node1&#45;&gt;Node3</title>
<g id="a_edge2_Node000001_Node000003"><a xlink:title=" ">
<path fill="none" stroke="#63b8ff" d="M136.24,-29.43C144.15,-28.42 152.29,-27.39 160.37,-26.36"/>
<polygon fill="#63b8ff" stroke="#63b8ff" points="160.75,-29.84 170.22,-25.1 159.86,-22.89 160.75,-29.84"/>
</a>
</g>
</g>
</g>
</svg>
