<?xml version="1.0" encoding="UTF-8" standalone="no"?>
<!DOCTYPE svg PUBLIC "-//W3C//DTD SVG 1.1//EN"
 "http://www.w3.org/Graphics/SVG/1.1/DTD/svg11.dtd">
<!-- Generated by graphviz version 16.1.0 (20260904.0139)
 -->
<!-- Title: DatabaseManager::getInstance Pages: 1 -->
<!--zoomable 438 -->

<svg id="main" version="1.1" xmlns="http://www.w3.org/2000/svg" xmlns:xlink="http://www.w3.org/1999/xlink" xml:space="preserve">

<style type="text/css"><![CDATA[
.node, .edge {opacity: 0.7;}
.node.selected, .edge.selected {opacity: 1;}
.edge:hover path { stroke: red; }
.edge:hover polygon { stroke: red; fill: red; }
]]></style>

<defs>
  <circle id="rim" cx="0" cy="0" r="7"/>
  <circle id="rim2" cx="0" cy="0" r="3.5"/>
  <g id="zoomPlus">
    <use xlink:href="#rim" fill="#404040"><set attributeName="fill" to="#808080" begin="zoomplus.mouseover" end="zoomplus.mouseout"/></use>
    <path d="M-4,0h8M0,-4v8" fill="none" stroke="white" stroke-width="1.5" pointer-events="none"/>
  </g>
  <g id="zoomMin">
    <use xlink:href="#rim" fill="#404040"><set attributeName="fill" to="#808080" begin="zoomminus.mouseover" end="zoomminus.mouseout"/></use>
    <path d="M-4,0h8" fill="none" stroke="white" stroke-width="1.5" pointer-events="none"/>
  </g>
  <g id="arrowUp" transform="translate(30 24)">
    <use xlink:href="#rim"/>
    <path pointer-events="none" fill="none" stroke="white" stroke-width="1.5" d="M0,-3.0v7 M-2.5,-0.5L0,-3.0L2.5,-0.5"/>
  </g>
  <g id="arrowRight" transform="rotate(90) translate(36 -43)">
    <use xlink:href="#rim"/>
    <path pointer-events="none" fill="none" stroke="white" stroke-width="1.5" d="M0,-3.0v7 M-2.5,-0.5L0,-3.0L2.5,-0.5"/>
  </g>
  <g id="arrowDown" transform="rotate(180) translate(-30 -48)">
    <use xlink:href="#rim"/>
    <path pointer-events="none" fill="none" stroke="white" stroke-width="1.5" d="M0,-3.0v7 M-2.5,-0.5L0,-3.0L2.5,-0.5"/>
  </g>
  <g id="arrowLeft" transform="rotate(270) translate(-36 17)">
    <use xlink:href="#rim"/>
    <path pointer-events="none" fill="none" stroke="white" stroke-width="1.5" d="M0,-3.0v7 M-2.5,-0.5L0,-3.0L2.5,-0.5"/>
  </g>
  <g id="resetDef">
    <use xlink:href="#rim2" fill="#404040"><set attributeName="fill" to="#808080" begin="reset.mouseover" end="reset.mouseout"/></use>
  </g>
</defs>
<script type="application/ecmascript" xlink:href="svg.min.js"/>
<svg id="graph" class="graph" data-view-width="1213" data-view-height="438" data-section-id="dynsection-13">
<g id="viewport">
<title>DatabaseManager::getInstance</title>
<!-- Node1 -->
<g id="Node000001" class="node">
<title>Node1</title>
<g id="a_Node000001"><a xlink:title=" ">
<polygon fill="#999999" stroke="#666666" points="1204.62,-216 1052.12,-216 1052.12,-196 1204.62,-196 1204.62,-216"/>
<text xml:space="preserve" text-anchor="middle" x="1128.37" y="-202.5" font-family="Helvetica,sans-Serif" font-size="10.00">DatabaseManager::getInstance</text>
</a>
</g>
</g>
<!-- Node2 -->
<g id="Node000002" class="node">
<title>Node2</title>
<g id="a_Node000002"><a xlink:href="server__functions_8cpp.html#ac0fd90bd5f47d004cf60b567c43cf077" target="_top" xlink:title="Проверяет ответ и обновляет статистику активного задания.">
<polygon fill="white" stroke="#666666" points="1014.25,-412 942.75,-412 942.75,-392 1014.25,-392 1014.25,-412"/>
<text xml:space="preserve" text-anchor="middle" x="978.5" y="-398.5" font-family="Helvetica,sans-Serif" font-size="10.00">cmd_answer</text>
</a>
</g>
</g>
<!-- Node1&#45;&gt;Node2 -->
<g id="edge1_Node000001_Node000002" class="edge">
<title>Node1&#45;&gt;Node2</title>
<g id="a_edge1_Node000001_Node000002"><a xlink:title=" ">
<path fill="none" stroke="#63b8ff" d="M1118.79,-226.66C1103.05,-262.46 1066.5,-336.62 1016.12,-383 1012.54,-386.3 1008.27,-389.19 1003.94,-391.65"/>
<polygon fill="#63b8ff" stroke="#63b8ff" points="1122,-228.05 1122.72,-217.48 1115.57,-225.3 1122,-228.05"/>
</a>
</g>
</g>
<!-- Node11 -->
<g id="Node000011" class="node">
<title>Node11</title>
<g id="a_Node000011"><a xlink:href="server__functions_8cpp.html#a769c508f2e715dd2e712066863088176" target="_top" xlink:title=" ">
<polygon fill="white" stroke="#666666" points="1007.87,-356 949.12,-356 949.12,-336 1007.87,-336 1007.87,-356"/>
<text xml:space="preserve" text-anchor="middle" x="978.5" y="-342.5" font-family="Helvetica,sans-Serif" font-size="10.00">cmd_auth</text>
</a>
</g>
</g>
<!-- Node1&#45;&gt;Node11 -->
<g id="edge13_Node000001_Node000011" class="edge">
<title>Node1&#45;&gt;Node11</title>
<g id="a_edge13_Node000001_Node000011"><a xlink:title=" ">
<path fill="none" stroke="#63b8ff" d="M1113.15,-225.26C1093.5,-250.9 1055.94,-296.54 1016.12,-327 1012.02,-330.13 1007.34,-333.01 1002.71,-335.52"/>
<polygon fill="#63b8ff" stroke="#63b8ff" points="1115.85,-227.49 1119.08,-217.4 1110.26,-223.28 1115.85,-227.49"/>
</a>
</g>
</g>
<!-- Node12 -->
<g id="Node000012" class="node">
<title>Node12</title>
<g id="a_Node000012"><a xlink:href="server__functions_8cpp.html#a6387a2703c8a2a88b2122c3b5896fc41" target="_top" xlink:title=" ">
<polygon fill="white" stroke="#666666" points="1004.87,-300 952.12,-300 952.12,-280 1004.87,-280 1004.87,-300"/>
<text xml:space="preserve" text-anchor="middle" x="978.5" y="-286.5" font-family="Helvetica,sans-Serif" font-size="10.00">cmd_del</text>
</a>
</g>
</g>
<!-- Node1&#45;&gt;Node12 -->
<g id="edge16_Node000001_Node000012" class="edge">
<title>Node1&#45;&gt;Node12</title>
<g id="a_edge16_Node000001_Node000012"><a xlink:title=" ">
<path fill="none" stroke="#63b8ff" d="M1100.38,-222.28C1077.98,-235.67 1045.21,-254.97 1016.12,-271 1010.98,-273.83 1005.37,-276.8 1000.13,-279.53"/>
<polygon fill="#63b8ff" stroke="#63b8ff" points="1102.11,-225.33 1108.88,-217.18 1098.51,-219.32 1102.11,-225.33"/>
</a>
</g>
</g>
<!-- Node13 -->
<g id="Node000013" class="node">
<title>Node13</title>
<g id="a_Node000013"><a xlink:href="server__functions_8cpp.html#a90489a136779444aae8d20b3a78412d5" target="_top" xlink:title="Возвращает личную статистику по одному или всем типам заданий.">
<polygon fill="white" stroke="#666666" points="1016.12,-244 940.87,-244 940.87,-224 1016.12,-224 1016.12,-244"/>
<text xml:space="preserve" text-anchor="middle" x="978.5" y="-230.5" font-family="Helvetica,sans-Serif" font-size="10.00">cmd_mystats</text>
</a>
</g>
</g>
<!-- Node1&#45;&gt;Node13 -->
<g id="edge19_Node000001_Node000013" class="edge">
<title>Node1&#45;&gt;Node13</title>
<g id="a_edge19_Node000001_Node000013"><a xlink:title=" ">
<path fill="none" stroke="#63b8ff" d="M1061.18,-218.53C1045.73,-221.46 1029.83,-224.47 1016.2,-227.05"/>
<polygon fill="#63b8ff" stroke="#63b8ff" points="1061.65,-222.01 1070.82,-216.71 1060.34,-215.13 1061.65,-222.01"/>
</a>
</g>
</g>
<!-- Node14 -->
<g id="Node000014" class="node">
<title>Node14</title>
<g id="a_Node000014"><a xlink:href="server__functions_8cpp.html#a33acd3f8a2873fdbbe3f525c3b2e4c26" target="_top" xlink:title=" ">
<polygon fill="white" stroke="#666666" points="1005.25,-188 951.75,-188 951.75,-168 1005.25,-168 1005.25,-188"/>
<text xml:space="preserve" text-anchor="middle" x="978.5" y="-174.5" font-family="Helvetica,sans-Serif" font-size="10.00">cmd_reg</text>
</a>
</g>
</g>
<!-- Node1&#45;&gt;Node14 -->
<g id="edge22_Node000001_Node000014" class="edge">
<title>Node1&#45;&gt;Node14</title>
<g id="a_edge22_Node000001_Node000014"><a xlink:title=" ">
<path fill="none" stroke="#63b8ff" d="M1061.18,-193.47C1041.52,-189.74 1021.12,-185.88 1005.63,-182.95"/>
<polygon fill="#63b8ff" stroke="#63b8ff" points="1060.34,-196.87 1070.82,-195.29 1061.65,-189.99 1060.34,-196.87"/>
</a>
</g>
</g>
<!-- Node15 -->
<g id="Node000015" class="node">
<title>Node15</title>
<g id="a_Node000015"><a xlink:href="server__functions_8cpp.html#a0213d3193cca60e6b49b6e5cbe99ca87" target="_top" xlink:title=" ">
<polygon fill="white" stroke="#666666" points="1006.37,-132 950.62,-132 950.62,-112 1006.37,-112 1006.37,-132"/>
<text xml:space="preserve" text-anchor="middle" x="978.5" y="-118.5" font-family="Helvetica,sans-Serif" font-size="10.00">cmd_role</text>
</a>
</g>
</g>
<!-- Node1&#45;&gt;Node15 -->
<g id="edge25_Node000001_Node000015" class="edge">
<title>Node1&#45;&gt;Node15</title>
<g id="a_edge25_Node000001_Node000015"><a xlink:title=" ">
<path fill="none" stroke="#63b8ff" d="M1099.12,-189.95C1069.26,-172.99 1023.05,-146.74 997.69,-132.34"/>
<polygon fill="#63b8ff" stroke="#63b8ff" points="1097.2,-192.89 1107.63,-194.78 1100.66,-186.8 1097.2,-192.89"/>
</a>
</g>
</g>
<!-- Node16 -->
<g id="Node000016" class="node">
<title>Node16</title>
<g id="a_Node000016"><a xlink:href="server__functions_8cpp.html#afff7fee86461ffb5eba5ef712b323668" target="_top" xlink:title=" ">
<polygon fill="white" stroke="#666666" points="1009.37,-76 947.62,-76 947.62,-56 1009.37,-56 1009.37,-76"/>
<text xml:space="preserve" text-anchor="middle" x="978.5" y="-62.5" font-family="Helvetica,sans-Serif" font-size="10.00">cmd_stats</text>
</a>
</g>
</g>
<!-- Node1&#45;&gt;Node16 -->
<g id="edge28_Node000001_Node000016" class="edge">
<title>Node1&#45;&gt;Node16</title>
<g id="a_edge28_Node000001_Node000016"><a xlink:title=" ">
<path fill="none" stroke="#63b8ff" d="M1108.4,-188.04C1077.06,-158.37 1015.44,-100.03 990.43,-76.35"/>
<polygon fill="#63b8ff" stroke="#63b8ff" points="1105.97,-190.56 1115.64,-194.89 1110.78,-185.47 1105.97,-190.56"/>
</a>
</g>
</g>
<!-- Node17 -->
<g id="Node000017" class="node">
<title>Node17</title>
<g id="a_Node000017"><a xlink:href="server__functions_8cpp.html#a9e17555fa3a625f3d4cf8594bc7ad6b9" target="_top" xlink:title=" ">
<polygon fill="white" stroke="#666666" points="1010.5,-20 946.5,-20 946.5,0 1010.5,0 1010.5,-20"/>
<text xml:space="preserve" text-anchor="middle" x="978.5" y="-6.5" font-family="Helvetica,sans-Serif" font-size="10.00">cmd_users</text>
</a>
</g>
</g>
<!-- Node1&#45;&gt;Node17 -->
<g id="edge31_Node000001_Node000017" class="edge">
<title>Node1&#45;&gt;Node17</title>
<g id="a_edge31_Node000001_Node000017"><a xlink:title=" ">
<path fill="none" stroke="#63b8ff" d="M1114.86,-185.87C1095.27,-154.9 1055.51,-94.2 1016.12,-47 1008.13,-37.42 998.11,-27.42 990.57,-20.23"/>
<polygon fill="#63b8ff" stroke="#63b8ff" points="1111.83,-187.63 1120.11,-194.23 1117.76,-183.9 1111.83,-187.63"/>
</a>
</g>
</g>
<!-- Node2&#45;&gt;Node2 -->
<g id="edge2_Node000002_Node000002" class="edge">
<title>Node2&#45;&gt;Node2</title>
<g id="a_edge2_Node000002_Node000002"><a xlink:title=" ">
<path fill="none" stroke="#63b8ff" d="M999.95,-423.44C997.19,-427.3 990.03,-430 978.5,-430 957.4,-430 950.97,-420.98 959.21,-412.34"/>
<polygon fill="#63b8ff" stroke="#63b8ff" points="1003.42,-422.97 998.07,-413.82 996.55,-424.31 1003.42,-422.97"/>
</a>
</g>
</g>
<!-- Node3 -->
<g id="Node000003" class="node">
<title>Node3</title>
<g id="a_Node000003"><a xlink:href="server__functions_8cpp.html#a81af03de1406da373849210c4946e89e" target="_top" xlink:title="Разбирает текстовую команду и вызывает соответствующий обработчик.">
<polygon fill="white" stroke="#666666" points="904.87,-216 809.37,-216 809.37,-196 904.87,-196 904.87,-216"/>
<text xml:space="preserve" text-anchor="middle" x="857.12" y="-202.5" font-family="Helvetica,sans-Serif" font-size="10.00">processCommand</text>
</a>
</g>
</g>
<!-- Node2&#45;&gt;Node3 -->
<g id="edge3_Node000002_Node000003" class="edge">
<title>Node2&#45;&gt;Node3</title>
<g id="a_edge3_Node000002_Node000003"><a xlink:title=" ">
<path fill="none" stroke="#63b8ff" d="M942.73,-384.81C942.09,-384.22 941.47,-383.62 940.87,-383 891.55,-331.6 867.46,-245.42 860.4,-216.11"/>
<polygon fill="#63b8ff" stroke="#63b8ff" points="940.59,-387.58 950.73,-390.66 944.72,-381.93 940.59,-387.58"/>
</a>
</g>
</g>
<!-- Node3&#45;&gt;Node3 -->
<g id="edge4_Node000003_Node000003" class="edge">
<title>Node3&#45;&gt;Node3</title>
<g id="a_edge4_Node000003_Node000003"><a xlink:title=" ">
<path fill="none" stroke="#63b8ff" d="M878.57,-227.44C875.81,-231.3 868.66,-234 857.12,-234 836.02,-234 829.59,-224.98 837.84,-216.34"/>
<polygon fill="#63b8ff" stroke="#63b8ff" points="882.05,-226.97 876.7,-217.82 875.18,-228.31 882.05,-226.97"/>
</a>
</g>
</g>
<!-- Node4 -->
<g id="Node000004" class="node">
<title>Node4</title>
<g id="a_Node000004"><a xlink:href="class_my_tcp_server.html#ab4a64d2eab985d723090963f5c8a2882" target="_top" xlink:title="Читает команды клиента, вызывает обработчик и отправляет ответ.">
<polygon fill="white" stroke="#666666" points="773.37,-216 626.12,-216 626.12,-196 773.37,-196 773.37,-216"/>
<text xml:space="preserve" text-anchor="middle" x="699.75" y="-202.5" font-family="Helvetica,sans-Serif" font-size="10.00">MyTcpServer::slotServerRead</text>
</a>
</g>
</g>
<!-- Node3&#45;&gt;Node4 -->
<g id="edge5_Node000003_Node000004" class="edge">
<title>Node3&#45;&gt;Node4</title>
<g id="a_edge5_Node000003_Node000004"><a xlink:title=" ">
<path fill="none" stroke="#63b8ff" d="M797.81,-206C789.95,-206 781.8,-206 773.73,-206"/>
<polygon fill="#63b8ff" stroke="#63b8ff" points="797.57,-209.5 807.57,-206 797.57,-202.5 797.57,-209.5"/>
</a>
</g>
</g>
<!-- Node5 -->
<g id="Node000005" class="node">
<title>Node5</title>
<g id="a_Node000005"><a xlink:href="class_my_tcp_server.html#a0ba7316ffe1a26c57fabde9e74b6c8dc" target="_top" xlink:title="Принимает новое TCP&#45;подключение и создаёт для него сессию.">
<polygon fill="white" stroke="#666666" points="590.12,-216 424.87,-216 424.87,-196 590.12,-196 590.12,-216"/>
<text xml:space="preserve" text-anchor="middle" x="507.5" y="-202.5" font-family="Helvetica,sans-Serif" font-size="10.00">MyTcpServer::slotNewConnection</text>
</a>
</g>
</g>
<!-- Node4&#45;&gt;Node5 -->
<g id="edge6_Node000004_Node000005" class="edge">
<title>Node4&#45;&gt;Node5</title>
<g id="a_edge6_Node000004_Node000005"><a xlink:title=" ">
<path fill="none" stroke="#63b8ff" d="M614.27,-206C606.37,-206 598.38,-206 590.51,-206"/>
<polygon fill="#63b8ff" stroke="#63b8ff" points="614.22,-209.5 624.22,-206 614.22,-202.5 614.22,-209.5"/>
</a>
</g>
</g>
<!-- Node6 -->
<g id="Node000006" class="node">
<title>Node6</title>
<g id="a_Node000006"><a xlink:href="class_my_tcp_server.html#acf367c4695b4d160c7a2d25c2afaaec4" target="_top" xlink:title=" ">
<polygon fill="white" stroke="#666666" points="388.87,-216 251.37,-216 251.37,-196 388.87,-196 388.87,-216"/>
<text xml:space="preserve" text-anchor="middle" x="320.12" y="-202.5" font-family="Helvetica,sans-Serif" font-size="10.00">MyTcpServer::MyTcpServer</text>
</a>
</g>
</g>
<!-- Node5&#45;&gt;Node6 -->
<g id="edge7_Node000005_Node000006" class="edge">
<title>Node5&#45;&gt;Node6</title>
<g id="a_edge7_Node000005_Node000006"><a xlink:title=" ">
<path fill="none" stroke="#63b8ff" d="M413.07,-206C405.06,-206 397.06,-206 389.3,-206"/>
<polygon fill="#63b8ff" stroke="#63b8ff" points="412.86,-209.5 422.86,-206 412.86,-202.5 412.86,-209.5"/>
</a>
</g>
</g>
<!-- Node7 -->
<g id="Node000007" class="node">
<title>Node7</title>
<g id="a_Node000007"><a xlink:href="class_my_tcp_server.html#a2874527b074f6c121a2ceecb5f93047c" target="_top" xlink:title=" ">
<polygon fill="white" stroke="#666666" points="212,-254 81.25,-254 81.25,-234 212,-234 212,-254"/>
<text xml:space="preserve" text-anchor="middle" x="146.62" y="-240.5" font-family="Helvetica,sans-Serif" font-size="10.00">MyTcpServer::getInstance</text>
</a>
</g>
</g>
<!-- Node6&#45;&gt;Node7 -->
<g id="edge8_Node000006_Node000007" class="edge">
<title>Node6&#45;&gt;Node7</title>
<g id="a_edge8_Node000006_Node000007"><a xlink:title=" ">
<path fill="none" stroke="#63b8ff" d="M260.82,-218.92C239.3,-223.69 215.2,-229.03 194.78,-233.55"/>
<polygon fill="#63b8ff" stroke="#63b8ff" points="261.32,-222.39 270.33,-216.81 259.81,-215.56 261.32,-222.39"/>
</a>
</g>
</g>
<!-- Node9 -->
<g id="Node000009" class="node">
<title>Node9</title>
<g id="a_Node000009"><a xlink:href="class_my_tcp_server.html#a6e9b750bf5899802e26c9f62b6dc6104" target="_top" xlink:title=" ">
<polygon fill="white" stroke="#666666" points="215.37,-216 77.87,-216 77.87,-196 215.37,-196 215.37,-216"/>
<text xml:space="preserve" text-anchor="middle" x="146.62" y="-202.5" font-family="Helvetica,sans-Serif" font-size="10.00">MyTcpServer::MyTcpServer</text>
</a>
</g>
</g>
<!-- Node6&#45;&gt;Node9 -->
<g id="edge11_Node000006_Node000009" class="edge">
<title>Node6&#45;&gt;Node9</title>
<g id="a_edge11_Node000006_Node000009"><a xlink:title=" ">
<path fill="none" stroke="#63b8ff" d="M239.98,-206C231.89,-206 223.71,-206 215.75,-206"/>
<polygon fill="#63b8ff" stroke="#63b8ff" points="239.83,-209.5 249.83,-206 239.83,-202.5 239.83,-209.5"/>
</a>
</g>
</g>
<!-- Node10 -->
<g id="Node000010" class="node">
<title>Node10</title>
<g id="a_Node000010"><a xlink:href="class_my_tcp_server.html#af78a6dd06ea3553f56fb0b9a5d3ef228" target="_top" xlink:title=" ">
<polygon fill="white" stroke="#666666" points="207.12,-178 86.12,-178 86.12,-158 207.12,-158 207.12,-178"/>
<text xml:space="preserve" text-anchor="middle" x="146.62" y="-164.5" font-family="Helvetica,sans-Serif" font-size="10.00">MyTcpServer::operator=</text>
</a>
</g>
</g>
<!-- Node6&#45;&gt;Node10 -->
<g id="edge12_Node000006_Node000010" class="edge">
<title>Node6&#45;&gt;Node10</title>
<g id="a_edge12_Node000006_Node000010"><a xlink:title=" ">
<path fill="none" stroke="#63b8ff" d="M260.82,-193.08C239.3,-188.31 215.2,-182.97 194.78,-178.45"/>
<polygon fill="#63b8ff" stroke="#63b8ff" points="259.81,-196.44 270.33,-195.19 261.32,-189.61 259.81,-196.44"/>
</a>
</g>
</g>
<!-- Node8 -->
<g id="Node000008" class="node">
<title>Node8</title>
<g id="a_Node000008"><a xlink:href="main_8cpp.html#a0ddf1224851353fc92bfbff6f499fa97" target="_top" xlink:title="Точка входа серверного приложения.">
<polygon fill="white" stroke="#666666" points="41.87,-254 4.87,-254 4.87,-234 41.87,-234 41.87,-254"/>
<text xml:space="preserve" text-anchor="middle" x="23.37" y="-240.5" font-family="Helvetica,sans-Serif" font-size="10.00">main</text>
</a>
</g>
</g>
<!-- Node7&#45;&gt;Node8 -->
<g id="edge9_Node000007_Node000008" class="edge">
<title>Node7&#45;&gt;Node8</title>
<g id="a_edge9_Node000007_Node000008"><a xlink:title=" ">
<path fill="none" stroke="#63b8ff" d="M69.85,-244C59.67,-244 50.09,-244 42.37,-244"/>
<polygon fill="#63b8ff" stroke="#63b8ff" points="69.58,-247.5 79.58,-244 69.58,-240.5 69.58,-247.5"/>
</a>
</g>
</g>
<!-- Node8&#45;&gt;Node8 -->
<g id="edge10_Node000008_Node000008" class="edge">
<title>Node8&#45;&gt;Node8</title>
<g id="a_edge10_Node000008_Node000008"><a xlink:title=" ">
<path fill="none" stroke="#63b8ff" d="M45.75,-264.48C43.49,-268.85 36.04,-272 23.37,-272 1.47,-272 -4.87,-262.57 4.37,-253.76"/>
<polygon fill="#63b8ff" stroke="#63b8ff" points="49.17,-263.69 42.82,-255.2 42.49,-265.79 49.17,-263.69"/>
</a>
</g>
</g>
<!-- Node11&#45;&gt;Node3 -->
<g id="edge15_Node000011_Node000003" class="edge">
<title>Node11&#45;&gt;Node3</title>
<g id="a_edge15_Node000011_Node000003"><a xlink:title=" ">
<path fill="none" stroke="#63b8ff" d="M943.72,-329.35C942.73,-328.59 941.78,-327.81 940.87,-327 902.96,-293.42 873.98,-238.93 862.96,-216.33"/>
<polygon fill="#63b8ff" stroke="#63b8ff" points="941.6,-332.15 951.88,-334.7 945.44,-326.3 941.6,-332.15"/>
</a>
</g>
</g>
<!-- Node11&#45;&gt;Node11 -->
<g id="edge14_Node000011_Node000011" class="edge">
<title>Node11&#45;&gt;Node11</title>
<g id="a_edge14_Node000011_Node000011"><a xlink:title=" ">
<path fill="none" stroke="#63b8ff" d="M999.95,-367.44C997.19,-371.3 990.03,-374 978.5,-374 957.4,-374 950.97,-364.98 959.21,-356.34"/>
<polygon fill="#63b8ff" stroke="#63b8ff" points="1003.42,-366.97 998.07,-357.82 996.55,-368.31 1003.42,-366.97"/>
</a>
</g>
</g>
<!-- Node12&#45;&gt;Node3 -->
<g id="edge18_Node000012_Node000003" class="edge">
<title>Node12&#45;&gt;Node3</title>
<g id="a_edge18_Node000012_Node000003"><a xlink:title=" ">
<path fill="none" stroke="#63b8ff" d="M945.87,-274.08C944.16,-273.07 942.49,-272.04 940.87,-271 914.15,-253.79 885.52,-229.95 869.93,-216.44"/>
<polygon fill="#63b8ff" stroke="#63b8ff" points="944.05,-277.07 954.49,-278.87 947.45,-270.95 944.05,-277.07"/>
</a>
</g>
</g>
<!-- Node12&#45;&gt;Node12 -->
<g id="edge17_Node000012_Node000012" class="edge">
<title>Node12&#45;&gt;Node12</title>
<g id="a_edge17_Node000012_Node000012"><a xlink:title=" ">
<path fill="none" stroke="#63b8ff" d="M999.95,-311.44C997.19,-315.3 990.03,-318 978.5,-318 957.4,-318 950.97,-308.98 959.21,-300.34"/>
<polygon fill="#63b8ff" stroke="#63b8ff" points="1003.42,-310.97 998.07,-301.82 996.55,-312.31 1003.42,-310.97"/>
</a>
</g>
</g>
<!-- Node13&#45;&gt;Node3 -->
<g id="edge21_Node000013_Node000003" class="edge">
<title>Node13&#45;&gt;Node3</title>
<g id="a_edge21_Node000013_Node000003"><a xlink:title=" ">
<path fill="none" stroke="#63b8ff" d="M929.46,-222.73C920.65,-220.67 911.48,-218.51 902.77,-216.47"/>
<polygon fill="#63b8ff" stroke="#63b8ff" points="928.37,-226.07 938.91,-224.95 929.97,-219.26 928.37,-226.07"/>
</a>
</g>
</g>
<!-- Node13&#45;&gt;Node13 -->
<g id="edge20_Node000013_Node000013" class="edge">
<title>Node13&#45;&gt;Node13</title>
<g id="a_edge20_Node000013_Node000013"><a xlink:title=" ">
<path fill="none" stroke="#63b8ff" d="M999.95,-255.44C997.19,-259.3 990.03,-262 978.5,-262 957.4,-262 950.97,-252.98 959.21,-244.34"/>
<polygon fill="#63b8ff" stroke="#63b8ff" points="1003.42,-254.97 998.07,-245.82 996.55,-256.31 1003.42,-254.97"/>
</a>
</g>
</g>
<!-- Node14&#45;&gt;Node3 -->
<g id="edge24_Node000014_Node000003" class="edge">
<title>Node14&#45;&gt;Node3</title>
<g id="a_edge24_Node000014_Node000003"><a xlink:title=" ">
<path fill="none" stroke="#63b8ff" d="M940.34,-186.72C928.37,-189.52 914.99,-192.66 902.56,-195.58"/>
<polygon fill="#63b8ff" stroke="#63b8ff" points="940.89,-190.18 949.83,-184.49 939.29,-183.37 940.89,-190.18"/>
</a>
</g>
</g>
<!-- Node14&#45;&gt;Node14 -->
<g id="edge23_Node000014_Node000014" class="edge">
<title>Node14&#45;&gt;Node14</title>
<g id="a_edge23_Node000014_Node000014"><a xlink:title=" ">
<path fill="none" stroke="#63b8ff" d="M999.95,-199.44C997.19,-203.3 990.03,-206 978.5,-206 957.4,-206 950.97,-196.98 959.21,-188.34"/>
<polygon fill="#63b8ff" stroke="#63b8ff" points="1003.42,-198.97 998.07,-189.82 996.55,-200.31 1003.42,-198.97"/>
</a>
</g>
</g>
<!-- Node15&#45;&gt;Node3 -->
<g id="edge27_Node000015_Node000003" class="edge">
<title>Node15&#45;&gt;Node3</title>
<g id="a_edge27_Node000015_Node000003"><a xlink:title=" ">
<path fill="none" stroke="#63b8ff" d="M953.68,-138.76C929.58,-155.72 893.08,-181.4 872.88,-195.62"/>
<polygon fill="#63b8ff" stroke="#63b8ff" points="955.46,-141.79 961.62,-133.17 951.43,-136.06 955.46,-141.79"/>
</a>
</g>
</g>
<!-- Node15&#45;&gt;Node15 -->
<g id="edge26_Node000015_Node000015" class="edge">
<title>Node15&#45;&gt;Node15</title>
<g id="a_edge26_Node000015_Node000015"><a xlink:title=" ">
<path fill="none" stroke="#63b8ff" d="M999.95,-143.44C997.19,-147.3 990.03,-150 978.5,-150 957.4,-150 950.97,-140.98 959.21,-132.34"/>
<polygon fill="#63b8ff" stroke="#63b8ff" points="1003.42,-142.97 998.07,-133.82 996.55,-144.31 1003.42,-142.97"/>
</a>
</g>
</g>
<!-- Node16&#45;&gt;Node3 -->
<g id="edge30_Node000016_Node000003" class="edge">
<title>Node16&#45;&gt;Node3</title>
<g id="a_edge30_Node000016_Node000003"><a xlink:title=" ">
<path fill="none" stroke="#63b8ff" d="M958.61,-84.32C952.79,-90.17 946.45,-96.75 940.87,-103 911.7,-135.69 880,-176.94 865.77,-195.77"/>
<polygon fill="#63b8ff" stroke="#63b8ff" points="960.9,-86.99 965.54,-77.47 955.97,-82.01 960.9,-86.99"/>
</a>
</g>
</g>
<!-- Node16&#45;&gt;Node16 -->
<g id="edge29_Node000016_Node000016" class="edge">
<title>Node16&#45;&gt;Node16</title>
<g id="a_edge29_Node000016_Node000016"><a xlink:title=" ">
<path fill="none" stroke="#63b8ff" d="M999.95,-87.44C997.19,-91.3 990.03,-94 978.5,-94 957.4,-94 950.97,-84.98 959.21,-76.34"/>
<polygon fill="#63b8ff" stroke="#63b8ff" points="1003.42,-86.97 998.07,-77.82 996.55,-88.31 1003.42,-86.97"/>
</a>
</g>
</g>
<!-- Node17&#45;&gt;Node3 -->
<g id="edge33_Node000017_Node000003" class="edge">
<title>Node17&#45;&gt;Node3</title>
<g id="a_edge33_Node000017_Node000003"><a xlink:title=" ">
<path fill="none" stroke="#63b8ff" d="M957.58,-27.94C951.8,-33.7 945.74,-40.33 940.87,-47 903.28,-98.54 872.83,-169.5 862.19,-195.72"/>
<polygon fill="#63b8ff" stroke="#63b8ff" points="959.76,-30.7 964.58,-21.27 954.93,-25.64 959.76,-30.7"/>
</a>
</g>
</g>
<!-- Node17&#45;&gt;Node17 -->
<g id="edge32_Node000017_Node000017" class="edge">
<title>Node17&#45;&gt;Node17</title>
<g id="a_edge32_Node000017_Node000017"><a xlink:title=" ">
<path fill="none" stroke="#63b8ff" d="M999.95,-31.44C997.19,-35.3 990.03,-38 978.5,-38 957.4,-38 950.97,-28.98 959.21,-20.34"/>
<polygon fill="#63b8ff" stroke="#63b8ff" points="1003.42,-30.97 998.07,-21.82 996.55,-32.31 1003.42,-30.97"/>
</a>
</g>
</g>
</g>
</svg>

<g id="navigator" transform="translate(0 0)" fill="#404254">
  <rect fill="#f2f5e9" fill-opacity="0.5" stroke="#606060" stroke-width=".5" x="0" y="0" width="60" height="60"/>
  <use id="zoomplus" xlink:href="#zoomPlus" x="17" y="9" data-zoom="in"/>
  <use id="zoomminus" xlink:href="#zoomMin" x="42" y="9" data-zoom="out"/>
  <use id="reset" xlink:href="#resetDef" x="30" y="36" data-reset="true"/>
  <use id="arrowup" xlink:href="#arrowUp" x="0" y="0" data-pan-x="0" data-pan-y="-1"/>
  <use id="arrowright" xlink:href="#arrowRight" x="0" y="0" data-pan-x="1" data-pan-y="0"/>
  <use id="arrowdown" xlink:href="#arrowDown" x="0" y="0" data-pan-x="0" data-pan-y="1"/>
  <use id="arrowleft" xlink:href="#arrowLeft" x="0" y="0" data-pan-x="-1" data-pan-y="0"/>
</g>
<svg viewBox="0 0 15 15" width="100%" height="30px" preserveAspectRatio="xMaxYMin meet">
 <g id="arrow_out" transform="scale(0.3 0.3)">
  <a xlink:href="class_database_manager_adc77584b498f23cb33c9fc2d0422a73f_icgraph_org.svg" target="_base">
   <rect id="button" ry="5" rx="5" y="6" x="6" height="38" width="38"
        fill="#f2f5e9" fill-opacity="0.5" stroke="#606060" stroke-width="1.0"/>
   <path id="arrow"
     d="M 11.500037,31.436501 C 11.940474,20.09759 22.043105,11.32322 32.158766,21.979434 L 37.068811,17.246167 C 37.068811,17.246167 37.088388,32 37.088388,32 L 22.160133,31.978069 C 22.160133,31.978069 26.997745,27.140456 26.997745,27.140456 C 18.528582,18.264221 13.291696,25.230495 11.500037,31.436501 z"
     style="fill:#404040;"/>
  </a>
 </g>
</svg>

<style type='text/css'>
<![CDATA[
[data-mouse-over-selected='false'] { opacity: 0.7; }
[data-mouse-over-selected='true']  { opacity: 1.0; }
]]>
</style>
</svg>
