<?xml version="1.0" encoding="UTF-8" standalone="no"?>
<!DOCTYPE svg PUBLIC "-//W3C//DTD SVG 1.1//EN"
 "http://www.w3.org/Graphics/SVG/1.1/DTD/svg11.dtd">
<!-- Generated by graphviz version 16.1.0 (20260904.0139)
 -->
<!-- Title: DatabaseManager::regUser Pages: 1 -->
<svg width="328pt" height="84pt"
 viewBox="0.00 0.00 328.00 84.00" xmlns="http://www.w3.org/2000/svg" xmlns:xlink="http://www.w3.org/1999/xlink">
<g id="graph0" class="graph" transform="scale(1 1) rotate(0) translate(4 80)">
<title>DatabaseManager::regUser</title>
<!-- Node1 -->
<g id="Node000001" class="node">
<title>Node1</title>
<g id="a_Node000001"><a xlink:title="Регистрирует пользователя; пароль сохраняется как SHA&#45;256.">
<polygon fill="#999999" stroke="#666666" points="136,-39 0,-39 0,-19 136,-19 136,-39"/>
<text xml:space="preserve" text-anchor="middle" x="68" y="-25.5" font-family="Helvetica,sans-Serif" font-size="10.00">DatabaseManager::regUser</text>
</a>
</g>
</g>
<!-- Node2 -->
<g id="Node000002" class="node">
<title>Node2</title>
<g id="a_Node000002"><a xlink:href="databasemanager_8cpp.html#a8ff4b8e34d22c2ca10aa6fe31da7cefa" target="_top" xlink:title="Возвращает строковое имя роли.">
<polygon fill="white" stroke="#666666" points="279.88,-58 212.12,-58 212.12,-38 279.88,-38 279.88,-58"/>
<text xml:space="preserve" text-anchor="middle" x="246" y="-44.5" font-family="Helvetica,sans-Serif" font-size="10.00">roleToString</text>
</a>
</g>
</g>
<!-- Node1&#45;&gt;Node2 -->
<g id="edge1_Node000001_Node000002" class="edge">
<title>Node1&#45;&gt;Node2</title>
<g id="a_edge1_Node000001_Node000002"><a xlink:title=" ">
<path fill="none" stroke="#63b8ff" d="M136.29,-36.26C157.77,-38.58 180.99,-41.09 200.44,-43.19"/>
<polygon fill="#63b8ff" stroke="#63b8ff" points="199.88,-46.65 210.2,-44.24 200.63,-39.69 199.88,-46.65"/>
</a>
</g>
</g>
<!-- Node3 -->
<g id="Node000003" class="node">
<title>Node3</title>
<g id="a_Node000003"><a xlink:href="class_database_manager.html#a4de8a21495a20fc23114c5293b0548d5" target="_top" xlink:title="Проверяет существование пользователя с заданным логином.">
<polygon fill="white" stroke="#666666" points="320,-20 172,-20 172,0 320,0 320,-20"/>
<text xml:space="preserve" text-anchor="middle" x="246" y="-6.5" font-family="Helvetica,sans-Serif" font-size="10.00">DatabaseManager::userExists</text>
</a>
</g>
</g>
<!-- Node1&#45;&gt;Node3 -->
<g id="edge3_Node000001_Node000003" class="edge">
<title>Node1&#45;&gt;Node3</title>
<g id="a_edge3_Node000001_Node000003"><a xlink:title=" ">
<path fill="none" stroke="#63b8ff" d="M136.29,-21.74C144.14,-20.89 152.22,-20.02 160.27,-19.15"/>
<polygon fill="#63b8ff" stroke="#63b8ff" points="160.52,-22.64 170.09,-18.09 159.77,-15.68 160.52,-22.64"/>
</a>
</g>
</g>
<!-- Node2&#45;&gt;Node2 -->
<g id="edge2_Node000002_Node000002" class="edge">
<title>Node2&#45;&gt;Node2</title>
<g id="a_edge2_Node000002_Node000002"><a xlink:title=" ">
<path fill="none" stroke="#63b8ff" d="M217.72,-58.34C205.63,-66.98 215.06,-76 246,-76 263.4,-76 274,-73.14 277.79,-69.11"/>
<polygon fill="#63b8ff" stroke="#63b8ff" points="281.18,-68.2 274.75,-59.78 274.52,-70.37 281.18,-68.2"/>
</a>
</g>
</g>
</g>
</svg>
