<?xml version="1.0" encoding="UTF-8" standalone="no"?>
<!DOCTYPE svg PUBLIC "-//W3C//DTD SVG 1.1//EN"
 "http://www.w3.org/Graphics/SVG/1.1/DTD/svg11.dtd">
<!-- Generated by graphviz version 16.1.0 (20260904.0139)
 -->
<!-- Title: DatabaseManager::updateLastAuth Pages: 1 -->
<!--zoomable 122 -->

<svg id="main" version="1.1" xmlns="http://www.w3.org/2000/svg" xmlns:xlink="http://www.w3.org/1999/xlink" xml:space="preserve">

<style type="text/css"><![CDATA[
.node, .edge {opacity: 0.7;}
.node.selected, .edge.selected {opacity: 1;}
.edge:hover path { stroke: red; }
.edge:hover polygon { stroke: red; fill: red; }
]]></style>

<defs>
  <circle id="rim" cx="0" cy="0" r="7"/>
  <circle id="rim2" cx="0" cy="0" r="3.5"/>
  <g id="zoomPlus">
    <use xlink:href="#rim" fill="#404040"><set attributeName="fill" to="#808080" begin="zoomplus.mouseover" end="zoomplus.mouseout"/></use>
    <path d="M-4,0h8M0,-4v8" fill="none" stroke="white" stroke-width="1.5" pointer-events="none"/>
  </g>
  <g id="zoomMin">
    <use xlink:href="#rim" fill="#404040"><set attributeName="fill" to="#808080" begin="zoomminus.mouseover" end="zoomminus.mouseout"/></use>
    <path d="M-4,0h8" fill="none" stroke="white" stroke-width="1.5" pointer-events="none"/>
  </g>
  <g id="arrowUp" transform="translate(30 24)">
    <use xlink:href="#rim"/>
    <path pointer-events="none" fill="none" stroke="white" stroke-width="1.5" d="M0,-3.0v7 M-2.5,-0.5L0,-3.0L2.5,-0.5"/>
  </g>
  <g id="arrowRight" transform="rotate(90) translate(36 -43)">
    <use xlink:href="#rim"/>
    <path pointer-events="none" fill="none" stroke="white" stroke-width="1.5" d="M0,-3.0v7 M-2.5,-0.5L0,-3.0L2.5,-0.5"/>
  </g>
  <g id="arrowDown" transform="rotate(180) translate(-30 -48)">
    <use xlink:href="#rim"/>
    <path pointer-events="none" fill="none" stroke="white" stroke-width="1.5" d="M0,-3.0v7 M-2.5,-0.5L0,-3.0L2.5,-0.5"/>
  </g>
  <g id="arrowLeft" transform="rotate(270) translate(-36 17)">
    <use xlink:href="#rim"/>
    <path pointer-events="none" fill="none" stroke="white" stroke-width="1.5" d="M0,-3.0v7 M-2.5,-0.5L0,-3.0L2.5,-0.5"/>
  </g>
  <g id="resetDef">
    <use xlink:href="#rim2" fill="#404040"><set attributeName="fill" to="#808080" begin="reset.mouseover" end="reset.mouseout"/></use>
  </g>
</defs>
<script type="application/ecmascript" xlink:href="svg.min.js"/>
<svg id="graph" class="graph" data-view-width="1391" data-view-height="122" data-section-id="dynsection-24">
<g id="viewport">
<title>DatabaseManager::updateLastAuth</title>
<!-- Node1 -->
<g id="Node000001" class="node">
<title>Node1</title>
<g id="a_Node000001"><a xlink:title=" ">
<polygon fill="#999999" stroke="#666666" points="1382.62,-80 1212.87,-80 1212.87,-60 1382.62,-60 1382.62,-80"/>
<text xml:space="preserve" text-anchor="middle" x="1297.75" y="-66.5" font-family="Helvetica,sans-Serif" font-size="10.00">DatabaseManager::updateLastAuth</text>
</a>
</g>
</g>
<!-- Node2 -->
<g id="Node000002" class="node">
<title>Node2</title>
<g id="a_Node000002"><a xlink:href="class_database_manager.html#ac479a8b94759eda7684b22f04674bcda" target="_top" xlink:title="Проверяет логин и пароль пользователя.">
<polygon fill="white" stroke="#666666" points="1176.87,-102 1035.62,-102 1035.62,-82 1176.87,-82 1176.87,-102"/>
<text xml:space="preserve" text-anchor="middle" x="1106.25" y="-88.5" font-family="Helvetica,sans-Serif" font-size="10.00">DatabaseManager::authUser</text>
</a>
</g>
</g>
<!-- Node1&#45;&gt;Node2 -->
<g id="edge1_Node000001_Node000002" class="edge">
<title>Node1&#45;&gt;Node2</title>
<g id="a_edge1_Node000001_Node000002"><a xlink:title=" ">
<path fill="none" stroke="#63b8ff" d="M1201.18,-81.09C1193.14,-82.03 1185.11,-82.96 1177.32,-83.87"/>
<polygon fill="#63b8ff" stroke="#63b8ff" points="1201.49,-84.58 1211.02,-79.95 1200.68,-77.63 1201.49,-84.58"/>
</a>
</g>
</g>
<!-- Node3 -->
<g id="Node000003" class="node">
<title>Node3</title>
<g id="a_Node000003"><a xlink:href="class_database_manager.html#ac620ee7e0f3e7e4dfb36d88934d33500" target="_top" xlink:title="Проверяет учётные данные и возвращает роль пользователя.">
<polygon fill="white" stroke="#666666" points="1176.87,-64 1035.62,-64 1035.62,-32 1176.87,-32 1176.87,-64"/>
<text xml:space="preserve" text-anchor="start" x="1043.62" y="-50.5" font-family="Helvetica,sans-Serif" font-size="10.00">DatabaseManager::authUser</text>
<text xml:space="preserve" text-anchor="middle" x="1106.25" y="-38.5" font-family="Helvetica,sans-Serif" font-size="10.00">WithRole</text>
</a>
</g>
</g>
<!-- Node1&#45;&gt;Node3 -->
<g id="edge2_Node000001_Node000003" class="edge">
<title>Node1&#45;&gt;Node3</title>
<g id="a_edge2_Node000001_Node000003"><a xlink:title=" ">
<path fill="none" stroke="#63b8ff" d="M1201.18,-58.91C1193.14,-57.97 1185.11,-57.04 1177.32,-56.13"/>
<polygon fill="#63b8ff" stroke="#63b8ff" points="1200.68,-62.37 1211.02,-60.05 1201.49,-55.42 1200.68,-62.37"/>
</a>
</g>
</g>
<!-- Node4 -->
<g id="Node000004" class="node">
<title>Node4</title>
<g id="a_Node000004"><a xlink:href="server__functions_8cpp.html#a769c508f2e715dd2e712066863088176" target="_top" xlink:title=" ">
<polygon fill="white" stroke="#666666" points="999.62,-58 940.87,-58 940.87,-38 999.62,-38 999.62,-58"/>
<text xml:space="preserve" text-anchor="middle" x="970.25" y="-44.5" font-family="Helvetica,sans-Serif" font-size="10.00">cmd_auth</text>
</a>
</g>
</g>
<!-- Node3&#45;&gt;Node4 -->
<g id="edge3_Node000003_Node000004" class="edge">
<title>Node3&#45;&gt;Node4</title>
<g id="a_edge3_Node000003_Node000004"><a xlink:title=" ">
<path fill="none" stroke="#63b8ff" d="M1024.08,-48C1015.49,-48 1007.23,-48 999.9,-48"/>
<polygon fill="#63b8ff" stroke="#63b8ff" points="1023.99,-51.5 1033.99,-48 1023.99,-44.5 1023.99,-51.5"/>
</a>
</g>
</g>
<!-- Node4&#45;&gt;Node4 -->
<g id="edge4_Node000004_Node000004" class="edge">
<title>Node4&#45;&gt;Node4</title>
<g id="a_edge4_Node000004_Node000004"><a xlink:title=" ">
<path fill="none" stroke="#63b8ff" d="M990.24,-69.44C987.66,-73.3 981,-76 970.25,-76 950.58,-76 944.59,-66.98 952.27,-58.34"/>
<polygon fill="#63b8ff" stroke="#63b8ff" points="993.72,-69.04 988.49,-59.83 986.84,-70.29 993.72,-69.04"/>
</a>
</g>
</g>
<!-- Node5 -->
<g id="Node000005" class="node">
<title>Node5</title>
<g id="a_Node000005"><a xlink:href="server__functions_8cpp.html#a81af03de1406da373849210c4946e89e" target="_top" xlink:title="Разбирает текстовую команду и вызывает соответствующий обработчик.">
<polygon fill="white" stroke="#666666" points="904.87,-58 809.37,-58 809.37,-38 904.87,-38 904.87,-58"/>
<text xml:space="preserve" text-anchor="middle" x="857.12" y="-44.5" font-family="Helvetica,sans-Serif" font-size="10.00">processCommand</text>
</a>
</g>
</g>
<!-- Node4&#45;&gt;Node5 -->
<g id="edge5_Node000004_Node000005" class="edge">
<title>Node4&#45;&gt;Node5</title>
<g id="a_edge5_Node000004_Node000005"><a xlink:title=" ">
<path fill="none" stroke="#63b8ff" d="M929.22,-48C921.42,-48 913.18,-48 905.18,-48"/>
<polygon fill="#63b8ff" stroke="#63b8ff" points="929.12,-51.5 939.12,-48 929.12,-44.5 929.12,-51.5"/>
</a>
</g>
</g>
<!-- Node5&#45;&gt;Node5 -->
<g id="edge6_Node000005_Node000005" class="edge">
<title>Node5&#45;&gt;Node5</title>
<g id="a_edge6_Node000005_Node000005"><a xlink:title=" ">
<path fill="none" stroke="#63b8ff" d="M877.12,-69.44C874.54,-73.3 867.88,-76 857.12,-76 837.46,-76 831.47,-66.98 839.15,-58.34"/>
<polygon fill="#63b8ff" stroke="#63b8ff" points="880.6,-69.04 875.37,-59.83 873.71,-70.29 880.6,-69.04"/>
</a>
</g>
</g>
<!-- Node6 -->
<g id="Node000006" class="node">
<title>Node6</title>
<g id="a_Node000006"><a xlink:href="class_my_tcp_server.html#ab4a64d2eab985d723090963f5c8a2882" target="_top" xlink:title="Читает команды клиента, вызывает обработчик и отправляет ответ.">
<polygon fill="white" stroke="#666666" points="773.37,-58 626.12,-58 626.12,-38 773.37,-38 773.37,-58"/>
<text xml:space="preserve" text-anchor="middle" x="699.75" y="-44.5" font-family="Helvetica,sans-Serif" font-size="10.00">MyTcpServer::slotServerRead</text>
</a>
</g>
</g>
<!-- Node5&#45;&gt;Node6 -->
<g id="edge7_Node000005_Node000006" class="edge">
<title>Node5&#45;&gt;Node6</title>
<g id="a_edge7_Node000005_Node000006"><a xlink:title=" ">
<path fill="none" stroke="#63b8ff" d="M797.81,-48C789.95,-48 781.8,-48 773.73,-48"/>
<polygon fill="#63b8ff" stroke="#63b8ff" points="797.57,-51.5 807.57,-48 797.57,-44.5 797.57,-51.5"/>
</a>
</g>
</g>
<!-- Node7 -->
<g id="Node000007" class="node">
<title>Node7</title>
<g id="a_Node000007"><a xlink:href="class_my_tcp_server.html#a0ba7316ffe1a26c57fabde9e74b6c8dc" target="_top" xlink:title="Принимает новое TCP&#45;подключение и создаёт для него сессию.">
<polygon fill="white" stroke="#666666" points="590.12,-58 424.87,-58 424.87,-38 590.12,-38 590.12,-58"/>
<text xml:space="preserve" text-anchor="middle" x="507.5" y="-44.5" font-family="Helvetica,sans-Serif" font-size="10.00">MyTcpServer::slotNewConnection</text>
</a>
</g>
</g>
<!-- Node6&#45;&gt;Node7 -->
<g id="edge8_Node000006_Node000007" class="edge">
<title>Node6&#45;&gt;Node7</title>
<g id="a_edge8_Node000006_Node000007"><a xlink:title=" ">
<path fill="none" stroke="#63b8ff" d="M614.27,-48C606.37,-48 598.38,-48 590.51,-48"/>
<polygon fill="#63b8ff" stroke="#63b8ff" points="614.22,-51.5 624.22,-48 614.22,-44.5 614.22,-51.5"/>
</a>
</g>
</g>
<!-- Node8 -->
<g id="Node000008" class="node">
<title>Node8</title>
<g id="a_Node000008"><a xlink:href="class_my_tcp_server.html#acf367c4695b4d160c7a2d25c2afaaec4" target="_top" xlink:title=" ">
<polygon fill="white" stroke="#666666" points="388.87,-58 251.37,-58 251.37,-38 388.87,-38 388.87,-58"/>
<text xml:space="preserve" text-anchor="middle" x="320.12" y="-44.5" font-family="Helvetica,sans-Serif" font-size="10.00">MyTcpServer::MyTcpServer</text>
</a>
</g>
</g>
<!-- Node7&#45;&gt;Node8 -->
<g id="edge9_Node000007_Node000008" class="edge">
<title>Node7&#45;&gt;Node8</title>
<g id="a_edge9_Node000007_Node000008"><a xlink:title=" ">
<path fill="none" stroke="#63b8ff" d="M413.07,-48C405.06,-48 397.06,-48 389.3,-48"/>
<polygon fill="#63b8ff" stroke="#63b8ff" points="412.86,-51.5 422.86,-48 412.86,-44.5 412.86,-51.5"/>
</a>
</g>
</g>
<!-- Node9 -->
<g id="Node000009" class="node">
<title>Node9</title>
<g id="a_Node000009"><a xlink:href="class_my_tcp_server.html#a2874527b074f6c121a2ceecb5f93047c" target="_top" xlink:title=" ">
<polygon fill="white" stroke="#666666" points="212,-96 81.25,-96 81.25,-76 212,-76 212,-96"/>
<text xml:space="preserve" text-anchor="middle" x="146.62" y="-82.5" font-family="Helvetica,sans-Serif" font-size="10.00">MyTcpServer::getInstance</text>
</a>
</g>
</g>
<!-- Node8&#45;&gt;Node9 -->
<g id="edge10_Node000008_Node000009" class="edge">
<title>Node8&#45;&gt;Node9</title>
<g id="a_edge10_Node000008_Node000009"><a xlink:title=" ">
<path fill="none" stroke="#63b8ff" d="M260.82,-60.92C239.3,-65.69 215.2,-71.03 194.78,-75.55"/>
<polygon fill="#63b8ff" stroke="#63b8ff" points="261.32,-64.39 270.33,-58.81 259.81,-57.56 261.32,-64.39"/>
</a>
</g>
</g>
<!-- Node11 -->
<g id="Node000011" class="node">
<title>Node11</title>
<g id="a_Node000011"><a xlink:href="class_my_tcp_server.html#a6e9b750bf5899802e26c9f62b6dc6104" target="_top" xlink:title=" ">
<polygon fill="white" stroke="#666666" points="215.37,-58 77.87,-58 77.87,-38 215.37,-38 215.37,-58"/>
<text xml:space="preserve" text-anchor="middle" x="146.62" y="-44.5" font-family="Helvetica,sans-Serif" font-size="10.00">MyTcpServer::MyTcpServer</text>
</a>
</g>
</g>
<!-- Node8&#45;&gt;Node11 -->
<g id="edge13_Node000008_Node000011" class="edge">
<title>Node8&#45;&gt;Node11</title>
<g id="a_edge13_Node000008_Node000011"><a xlink:title=" ">
<path fill="none" stroke="#63b8ff" d="M239.98,-48C231.89,-48 223.71,-48 215.75,-48"/>
<polygon fill="#63b8ff" stroke="#63b8ff" points="239.83,-51.5 249.83,-48 239.83,-44.5 239.83,-51.5"/>
</a>
</g>
</g>
<!-- Node12 -->
<g id="Node000012" class="node">
<title>Node12</title>
<g id="a_Node000012"><a xlink:href="class_my_tcp_server.html#af78a6dd06ea3553f56fb0b9a5d3ef228" target="_top" xlink:title=" ">
<polygon fill="white" stroke="#666666" points="207.12,-20 86.12,-20 86.12,0 207.12,0 207.12,-20"/>
<text xml:space="preserve" text-anchor="middle" x="146.62" y="-6.5" font-family="Helvetica,sans-Serif" font-size="10.00">MyTcpServer::operator=</text>
</a>
</g>
</g>
<!-- Node8&#45;&gt;Node12 -->
<g id="edge14_Node000008_Node000012" class="edge">
<title>Node8&#45;&gt;Node12</title>
<g id="a_edge14_Node000008_Node000012"><a xlink:title=" ">
<path fill="none" stroke="#63b8ff" d="M260.82,-35.08C239.3,-30.31 215.2,-24.97 194.78,-20.45"/>
<polygon fill="#63b8ff" stroke="#63b8ff" points="259.81,-38.44 270.33,-37.19 261.32,-31.61 259.81,-38.44"/>
</a>
</g>
</g>
<!-- Node10 -->
<g id="Node000010" class="node">
<title>Node10</title>
<g id="a_Node000010"><a xlink:href="main_8cpp.html#a0ddf1224851353fc92bfbff6f499fa97" target="_top" xlink:title="Точка входа серверного приложения.">
<polygon fill="white" stroke="#666666" points="41.87,-96 4.87,-96 4.87,-76 41.87,-76 41.87,-96"/>
<text xml:space="preserve" text-anchor="middle" x="23.37" y="-82.5" font-family="Helvetica,sans-Serif" font-size="10.00">main</text>
</a>
</g>
</g>
<!-- Node9&#45;&gt;Node10 -->
<g id="edge11_Node000009_Node000010" class="edge">
<title>Node9&#45;&gt;Node10</title>
<g id="a_edge11_Node000009_Node000010"><a xlink:title=" ">
<path fill="none" stroke="#63b8ff" d="M69.85,-86C59.67,-86 50.09,-86 42.37,-86"/>
<polygon fill="#63b8ff" stroke="#63b8ff" points="69.58,-89.5 79.58,-86 69.58,-82.5 69.58,-89.5"/>
</a>
</g>
</g>
<!-- Node10&#45;&gt;Node10 -->
<g id="edge12_Node000010_Node000010" class="edge">
<title>Node10&#45;&gt;Node10</title>
<g id="a_edge12_Node000010_Node000010"><a xlink:title=" ">
<path fill="none" stroke="#63b8ff" d="M45.75,-106.48C43.49,-110.85 36.04,-114 23.37,-114 1.47,-114 -4.87,-104.57 4.37,-95.76"/>
<polygon fill="#63b8ff" stroke="#63b8ff" points="49.17,-105.69 42.82,-97.2 42.49,-107.79 49.17,-105.69"/>
</a>
</g>
</g>
</g>
</svg>

<g id="navigator" transform="translate(0 0)" fill="#404254">
  <rect fill="#f2f5e9" fill-opacity="0.5" stroke="#606060" stroke-width=".5" x="0" y="0" width="60" height="60"/>
  <use id="zoomplus" xlink:href="#zoomPlus" x="17" y="9" data-zoom="in"/>
  <use id="zoomminus" xlink:href="#zoomMin" x="42" y="9" data-zoom="out"/>
  <use id="reset" xlink:href="#resetDef" x="30" y="36" data-reset="true"/>
  <use id="arrowup" xlink:href="#arrowUp" x="0" y="0" data-pan-x="0" data-pan-y="-1"/>
  <use id="arrowright" xlink:href="#arrowRight" x="0" y="0" data-pan-x="1" data-pan-y="0"/>
  <use id="arrowdown" xlink:href="#arrowDown" x="0" y="0" data-pan-x="0" data-pan-y="1"/>
  <use id="arrowleft" xlink:href="#arrowLeft" x="0" y="0" data-pan-x="-1" data-pan-y="0"/>
</g>
<svg viewBox="0 0 15 15" width="100%" height="30px" preserveAspectRatio="xMaxYMin meet">
 <g id="arrow_out" transform="scale(0.3 0.3)">
  <a xlink:href="class_database_manager_a40e408d6b0e58b853a7699128215927e_icgraph_org.svg" target="_base">
   <rect id="button" ry="5" rx="5" y="6" x="6" height="38" width="38"
        fill="#f2f5e9" fill-opacity="0.5" stroke="#606060" stroke-width="1.0"/>
   <path id="arrow"
     d="M 11.500037,31.436501 C 11.940474,20.09759 22.043105,11.32322 32.158766,21.979434 L 37.068811,17.246167 C 37.068811,17.246167 37.088388,32 37.088388,32 L 22.160133,31.978069 C 22.160133,31.978069 26.997745,27.140456 26.997745,27.140456 C 18.528582,18.264221 13.291696,25.230495 11.500037,31.436501 z"
     style="fill:#404040;"/>
  </a>
 </g>
</svg>

<style type='text/css'>
<![CDATA[
[data-mouse-over-selected='false'] { opacity: 0.7; }
[data-mouse-over-selected='true']  { opacity: 1.0; }
]]>
</style>
</svg>
