<?xml version="1.0" encoding="UTF-8" standalone="no"?>
<!DOCTYPE svg PUBLIC "-//W3C//DTD SVG 1.1//EN"
 "http://www.w3.org/Graphics/SVG/1.1/DTD/svg11.dtd">
<!-- Generated by graphviz version 16.1.0 (20260904.0139)
 -->
<!-- Title: roleToString Pages: 1 -->
<!--zoomable 528 -->

<svg id="main" version="1.1" xmlns="http://www.w3.org/2000/svg" xmlns:xlink="http://www.w3.org/1999/xlink" xml:space="preserve">

<style type="text/css"><![CDATA[
.node, .edge {opacity: 0.7;}
.node.selected, .edge.selected {opacity: 1;}
.edge:hover path { stroke: red; }
.edge:hover polygon { stroke: red; fill: red; }
]]></style>

<defs>
  <circle id="rim" cx="0" cy="0" r="7"/>
  <circle id="rim2" cx="0" cy="0" r="3.5"/>
  <g id="zoomPlus">
    <use xlink:href="#rim" fill="#404040"><set attributeName="fill" to="#808080" begin="zoomplus.mouseover" end="zoomplus.mouseout"/></use>
    <path d="M-4,0h8M0,-4v8" fill="none" stroke="white" stroke-width="1.5" pointer-events="none"/>
  </g>
  <g id="zoomMin">
    <use xlink:href="#rim" fill="#404040"><set attributeName="fill" to="#808080" begin="zoomminus.mouseover" end="zoomminus.mouseout"/></use>
    <path d="M-4,0h8" fill="none" stroke="white" stroke-width="1.5" pointer-events="none"/>
  </g>
  <g id="arrowUp" transform="translate(30 24)">
    <use xlink:href="#rim"/>
    <path pointer-events="none" fill="none" stroke="white" stroke-width="1.5" d="M0,-3.0v7 M-2.5,-0.5L0,-3.0L2.5,-0.5"/>
  </g>
  <g id="arrowRight" transform="rotate(90) translate(36 -43)">
    <use xlink:href="#rim"/>
    <path pointer-events="none" fill="none" stroke="white" stroke-width="1.5" d="M0,-3.0v7 M-2.5,-0.5L0,-3.0L2.5,-0.5"/>
  </g>
  <g id="arrowDown" transform="rotate(180) translate(-30 -48)">
    <use xlink:href="#rim"/>
    <path pointer-events="none" fill="none" stroke="white" stroke-width="1.5" d="M0,-3.0v7 M-2.5,-0.5L0,-3.0L2.5,-0.5"/>
  </g>
  <g id="arrowLeft" transform="rotate(270) translate(-36 17)">
    <use xlink:href="#rim"/>
    <path pointer-events="none" fill="none" stroke="white" stroke-width="1.5" d="M0,-3.0v7 M-2.5,-0.5L0,-3.0L2.5,-0.5"/>
  </g>
  <g id="resetDef">
    <use xlink:href="#rim2" fill="#404040"><set attributeName="fill" to="#808080" begin="reset.mouseover" end="reset.mouseout"/></use>
  </g>
</defs>
<script type="application/ecmascript" xlink:href="svg.min.js"/>
<svg id="graph" class="graph" data-view-width="1704" data-view-height="528" data-section-id="dynsection-3">
<g id="viewport">
<title>roleToString</title>
<!-- Node1 -->
<g id="Node000001" class="node">
<title>Node1</title>
<g id="a_Node000001"><a xlink:title="Возвращает строковое имя роли.">
<polygon fill="#999999" stroke="#666666" points="1695.87,-115 1628.12,-115 1628.12,-95 1695.87,-95 1695.87,-115"/>
<text xml:space="preserve" text-anchor="middle" x="1662" y="-101.5" font-family="Helvetica,sans-Serif" font-size="10.00">roleToString</text>
</a>
</g>
</g>
<!-- Node1&#45;&gt;Node1 -->
<g id="edge45_Node000001_Node000001" class="edge">
<title>Node1&#45;&gt;Node1</title>
<g id="a_edge45_Node000001_Node000001"><a xlink:title=" ">
<path fill="none" stroke="#63b8ff" d="M1689.55,-126.44C1686,-130.3 1676.81,-133 1662,-133 1634.9,-133 1626.65,-123.98 1637.23,-115.34"/>
<polygon fill="#63b8ff" stroke="#63b8ff" points="1692.96,-125.66 1687.13,-116.81 1686.17,-127.36 1692.96,-125.66"/>
</a>
</g>
</g>
<!-- Node2 -->
<g id="Node000002" class="node">
<title>Node2</title>
<g id="a_Node000002"><a xlink:href="server__functions_8cpp.html#a769c508f2e715dd2e712066863088176" target="_top" xlink:title=" ">
<polygon fill="white" stroke="#666666" points="1007.87,-502 949.12,-502 949.12,-482 1007.87,-482 1007.87,-502"/>
<text xml:space="preserve" text-anchor="middle" x="978.5" y="-488.5" font-family="Helvetica,sans-Serif" font-size="10.00">cmd_auth</text>
</a>
</g>
</g>
<!-- Node1&#45;&gt;Node2 -->
<g id="edge1_Node000001_Node000002" class="edge">
<title>Node1&#45;&gt;Node2</title>
<g id="a_edge1_Node000001_Node000002"><a xlink:title=" ">
<path fill="none" stroke="#63b8ff" d="M1650.09,-125.06C1638.11,-145.57 1617.2,-177.28 1592.12,-198 1397.7,-358.59 1100.85,-455.97 1008.16,-483.74"/>
<polygon fill="#63b8ff" stroke="#63b8ff" points="1653.03,-126.96 1654.91,-116.53 1646.94,-123.52 1653.03,-126.96"/>
</a>
</g>
</g>
<!-- Node11 -->
<g id="Node000011" class="node">
<title>Node11</title>
<g id="a_Node000011"><a xlink:href="server__functions_8cpp.html#a9e17555fa3a625f3d4cf8594bc7ad6b9" target="_top" xlink:title=" ">
<polygon fill="white" stroke="#666666" points="1010.5,-110 946.5,-110 946.5,-90 1010.5,-90 1010.5,-110"/>
<text xml:space="preserve" text-anchor="middle" x="978.5" y="-96.5" font-family="Helvetica,sans-Serif" font-size="10.00">cmd_users</text>
</a>
</g>
</g>
<!-- Node1&#45;&gt;Node11 -->
<g id="edge13_Node000001_Node000011" class="edge">
<title>Node1&#45;&gt;Node11</title>
<g id="a_edge13_Node000001_Node000011"><a xlink:title=" ">
<path fill="none" stroke="#63b8ff" d="M1616.64,-104.69C1539.97,-104.16 1377.72,-103.01 1240.62,-102 1157.66,-101.39 1059.87,-100.63 1010.85,-100.25"/>
<polygon fill="#63b8ff" stroke="#63b8ff" points="1616.22,-108.19 1626.24,-104.76 1616.27,-101.19 1616.22,-108.19"/>
</a>
</g>
</g>
<!-- Node12 -->
<g id="Node000012" class="node">
<title>Node12</title>
<g id="a_Node000012"><a xlink:href="server__functions_8cpp.html#a4b194caf37601e4c86dce56517a6b520" target="_top" xlink:title=" ">
<polygon fill="white" stroke="#666666" points="1349.25,-75 1275.5,-75 1275.5,-55 1349.25,-55 1349.25,-75"/>
<text xml:space="preserve" text-anchor="middle" x="1312.37" y="-61.5" font-family="Helvetica,sans-Serif" font-size="10.00">cmd_whoami</text>
</a>
</g>
</g>
<!-- Node1&#45;&gt;Node12 -->
<g id="edge16_Node000001_Node000012" class="edge">
<title>Node1&#45;&gt;Node12</title>
<g id="a_edge16_Node000001_Node000012"><a xlink:title=" ">
<path fill="none" stroke="#63b8ff" d="M1616.24,-99.85C1546.64,-91.84 1413.79,-76.55 1349.71,-69.18"/>
<polygon fill="#63b8ff" stroke="#63b8ff" points="1615.83,-103.33 1626.16,-100.99 1616.63,-96.37 1615.83,-103.33"/>
</a>
</g>
</g>
<!-- Node13 -->
<g id="Node000013" class="node">
<title>Node13</title>
<g id="a_Node000013"><a xlink:href="class_database_manager.html#af755b98e0f96d65d0ea2a07274f27159" target="_top" xlink:title=" ">
<polygon fill="white" stroke="#666666" points="1584.25,-189 1428,-189 1428,-169 1584.25,-169 1584.25,-189"/>
<text xml:space="preserve" text-anchor="middle" x="1506.12" y="-175.5" font-family="Helvetica,sans-Serif" font-size="10.00">DatabaseManager::initDatabase</text>
</a>
</g>
</g>
<!-- Node1&#45;&gt;Node13 -->
<g id="edge19_Node000001_Node000013" class="edge">
<title>Node1&#45;&gt;Node13</title>
<g id="a_edge19_Node000001_Node000013"><a xlink:title=" ">
<path fill="none" stroke="#63b8ff" d="M1628.9,-120.44C1598.86,-134.88 1554.8,-156.07 1528.73,-168.61"/>
<polygon fill="#63b8ff" stroke="#63b8ff" points="1630.42,-123.59 1637.91,-116.1 1627.38,-117.28 1630.42,-123.59"/>
</a>
</g>
</g>
<!-- Node24 -->
<g id="Node000024" class="node">
<title>Node24</title>
<g id="a_Node000024"><a xlink:href="class_database_manager.html#abc9d122fdd166a7aa77e01506e85ec14" target="_top" xlink:title="Регистрирует пользователя; пароль сохраняется как SHA&#45;256.">
<polygon fill="white" stroke="#666666" points="1574.12,-58 1438.12,-58 1438.12,-38 1574.12,-38 1574.12,-58"/>
<text xml:space="preserve" text-anchor="middle" x="1506.12" y="-44.5" font-family="Helvetica,sans-Serif" font-size="10.00">DatabaseManager::regUser</text>
</a>
</g>
</g>
<!-- Node1&#45;&gt;Node24 -->
<g id="edge44_Node000001_Node000024" class="edge">
<title>Node1&#45;&gt;Node24</title>
<g id="a_edge44_Node000001_Node000024"><a xlink:title=" ">
<path fill="none" stroke="#63b8ff" d="M1631.56,-89.52C1619.53,-83.57 1605.36,-77 1592.12,-72 1578.49,-66.85 1563.27,-62.22 1549.52,-58.43"/>
<polygon fill="#63b8ff" stroke="#63b8ff" points="1629.64,-92.48 1640.15,-93.87 1632.8,-86.23 1629.64,-92.48"/>
</a>
</g>
</g>
<!-- Node25 -->
<g id="Node000025" class="node">
<title>Node25</title>
<g id="a_Node000025"><a xlink:href="class_database_manager.html#abfe9ed86c77432471b44c95faa9c3e5f" target="_top" xlink:title="Изменяет роль существующего пользователя.">
<polygon fill="white" stroke="#666666" points="1592.12,-20 1420.12,-20 1420.12,0 1592.12,0 1592.12,-20"/>
<text xml:space="preserve" text-anchor="middle" x="1506.12" y="-6.5" font-family="Helvetica,sans-Serif" font-size="10.00">DatabaseManager::updateUserRole</text>
</a>
</g>
</g>
<!-- Node1&#45;&gt;Node25 -->
<g id="edge46_Node000001_Node000025" class="edge">
<title>Node1&#45;&gt;Node25</title>
<g id="a_edge46_Node000001_Node000025"><a xlink:title=" ">
<path fill="none" stroke="#63b8ff" d="M1648.35,-85.21C1636.1,-67.71 1615.92,-42.86 1592.12,-29 1586.24,-25.58 1579.8,-22.77 1573.18,-20.47"/>
<polygon fill="#63b8ff" stroke="#63b8ff" points="1645.28,-86.93 1653.77,-93.27 1651.09,-83.02 1645.28,-86.93"/>
</a>
</g>
</g>
<!-- Node2&#45;&gt;Node2 -->
<g id="edge2_Node000002_Node000002" class="edge">
<title>Node2&#45;&gt;Node2</title>
<g id="a_edge2_Node000002_Node000002"><a xlink:title=" ">
<path fill="none" stroke="#63b8ff" d="M999.95,-513.44C997.19,-517.3 990.03,-520 978.5,-520 957.4,-520 950.97,-510.98 959.21,-502.34"/>
<polygon fill="#63b8ff" stroke="#63b8ff" points="1003.42,-512.97 998.07,-503.82 996.55,-514.31 1003.42,-512.97"/>
</a>
</g>
</g>
<!-- Node3 -->
<g id="Node000003" class="node">
<title>Node3</title>
<g id="a_Node000003"><a xlink:href="server__functions_8cpp.html#a81af03de1406da373849210c4946e89e" target="_top" xlink:title="Разбирает текстовую команду и вызывает соответствующий обработчик.">
<polygon fill="white" stroke="#666666" points="904.87,-278 809.37,-278 809.37,-258 904.87,-258 904.87,-278"/>
<text xml:space="preserve" text-anchor="middle" x="857.12" y="-264.5" font-family="Helvetica,sans-Serif" font-size="10.00">processCommand</text>
</a>
</g>
</g>
<!-- Node2&#45;&gt;Node3 -->
<g id="edge3_Node000002_Node000003" class="edge">
<title>Node2&#45;&gt;Node3</title>
<g id="a_edge3_Node000002_Node000003"><a xlink:title=" ">
<path fill="none" stroke="#63b8ff" d="M942.68,-474.85C942.05,-474.25 941.45,-473.64 940.87,-473 885.87,-412.52 865.11,-310.76 859.69,-278.29"/>
<polygon fill="#63b8ff" stroke="#63b8ff" points="940.49,-477.58 950.59,-480.78 944.69,-471.98 940.49,-477.58"/>
</a>
</g>
</g>
<!-- Node3&#45;&gt;Node3 -->
<g id="edge4_Node000003_Node000003" class="edge">
<title>Node3&#45;&gt;Node3</title>
<g id="a_edge4_Node000003_Node000003"><a xlink:title=" ">
<path fill="none" stroke="#63b8ff" d="M878.57,-289.44C875.81,-293.3 868.66,-296 857.12,-296 836.02,-296 829.59,-286.98 837.84,-278.34"/>
<polygon fill="#63b8ff" stroke="#63b8ff" points="882.05,-288.97 876.7,-279.82 875.18,-290.31 882.05,-288.97"/>
</a>
</g>
</g>
<!-- Node4 -->
<g id="Node000004" class="node">
<title>Node4</title>
<g id="a_Node000004"><a xlink:href="class_my_tcp_server.html#ab4a64d2eab985d723090963f5c8a2882" target="_top" xlink:title="Читает команды клиента, вызывает обработчик и отправляет ответ.">
<polygon fill="white" stroke="#666666" points="773.37,-278 626.12,-278 626.12,-258 773.37,-258 773.37,-278"/>
<text xml:space="preserve" text-anchor="middle" x="699.75" y="-264.5" font-family="Helvetica,sans-Serif" font-size="10.00">MyTcpServer::slotServerRead</text>
</a>
</g>
</g>
<!-- Node3&#45;&gt;Node4 -->
<g id="edge5_Node000003_Node000004" class="edge">
<title>Node3&#45;&gt;Node4</title>
<g id="a_edge5_Node000003_Node000004"><a xlink:title=" ">
<path fill="none" stroke="#63b8ff" d="M797.81,-268C789.95,-268 781.8,-268 773.73,-268"/>
<polygon fill="#63b8ff" stroke="#63b8ff" points="797.57,-271.5 807.57,-268 797.57,-264.5 797.57,-271.5"/>
</a>
</g>
</g>
<!-- Node5 -->
<g id="Node000005" class="node">
<title>Node5</title>
<g id="a_Node000005"><a xlink:href="class_my_tcp_server.html#a0ba7316ffe1a26c57fabde9e74b6c8dc" target="_top" xlink:title="Принимает новое TCP&#45;подключение и создаёт для него сессию.">
<polygon fill="white" stroke="#666666" points="590.12,-278 424.87,-278 424.87,-258 590.12,-258 590.12,-278"/>
<text xml:space="preserve" text-anchor="middle" x="507.5" y="-264.5" font-family="Helvetica,sans-Serif" font-size="10.00">MyTcpServer::slotNewConnection</text>
</a>
</g>
</g>
<!-- Node4&#45;&gt;Node5 -->
<g id="edge6_Node000004_Node000005" class="edge">
<title>Node4&#45;&gt;Node5</title>
<g id="a_edge6_Node000004_Node000005"><a xlink:title=" ">
<path fill="none" stroke="#63b8ff" d="M614.27,-268C606.37,-268 598.38,-268 590.51,-268"/>
<polygon fill="#63b8ff" stroke="#63b8ff" points="614.22,-271.5 624.22,-268 614.22,-264.5 614.22,-271.5"/>
</a>
</g>
</g>
<!-- Node6 -->
<g id="Node000006" class="node">
<title>Node6</title>
<g id="a_Node000006"><a xlink:href="class_my_tcp_server.html#acf367c4695b4d160c7a2d25c2afaaec4" target="_top" xlink:title=" ">
<polygon fill="white" stroke="#666666" points="388.87,-278 251.37,-278 251.37,-258 388.87,-258 388.87,-278"/>
<text xml:space="preserve" text-anchor="middle" x="320.12" y="-264.5" font-family="Helvetica,sans-Serif" font-size="10.00">MyTcpServer::MyTcpServer</text>
</a>
</g>
</g>
<!-- Node5&#45;&gt;Node6 -->
<g id="edge7_Node000005_Node000006" class="edge">
<title>Node5&#45;&gt;Node6</title>
<g id="a_edge7_Node000005_Node000006"><a xlink:title=" ">
<path fill="none" stroke="#63b8ff" d="M413.07,-268C405.06,-268 397.06,-268 389.3,-268"/>
<polygon fill="#63b8ff" stroke="#63b8ff" points="412.86,-271.5 422.86,-268 412.86,-264.5 412.86,-271.5"/>
</a>
</g>
</g>
<!-- Node7 -->
<g id="Node000007" class="node">
<title>Node7</title>
<g id="a_Node000007"><a xlink:href="class_my_tcp_server.html#a2874527b074f6c121a2ceecb5f93047c" target="_top" xlink:title=" ">
<polygon fill="white" stroke="#666666" points="212,-316 81.25,-316 81.25,-296 212,-296 212,-316"/>
<text xml:space="preserve" text-anchor="middle" x="146.62" y="-302.5" font-family="Helvetica,sans-Serif" font-size="10.00">MyTcpServer::getInstance</text>
</a>
</g>
</g>
<!-- Node6&#45;&gt;Node7 -->
<g id="edge8_Node000006_Node000007" class="edge">
<title>Node6&#45;&gt;Node7</title>
<g id="a_edge8_Node000006_Node000007"><a xlink:title=" ">
<path fill="none" stroke="#63b8ff" d="M260.82,-280.92C239.3,-285.69 215.2,-291.03 194.78,-295.55"/>
<polygon fill="#63b8ff" stroke="#63b8ff" points="261.32,-284.39 270.33,-278.81 259.81,-277.56 261.32,-284.39"/>
</a>
</g>
</g>
<!-- Node9 -->
<g id="Node000009" class="node">
<title>Node9</title>
<g id="a_Node000009"><a xlink:href="class_my_tcp_server.html#a6e9b750bf5899802e26c9f62b6dc6104" target="_top" xlink:title=" ">
<polygon fill="white" stroke="#666666" points="215.37,-278 77.87,-278 77.87,-258 215.37,-258 215.37,-278"/>
<text xml:space="preserve" text-anchor="middle" x="146.62" y="-264.5" font-family="Helvetica,sans-Serif" font-size="10.00">MyTcpServer::MyTcpServer</text>
</a>
</g>
</g>
<!-- Node6&#45;&gt;Node9 -->
<g id="edge11_Node000006_Node000009" class="edge">
<title>Node6&#45;&gt;Node9</title>
<g id="a_edge11_Node000006_Node000009"><a xlink:title=" ">
<path fill="none" stroke="#63b8ff" d="M239.98,-268C231.89,-268 223.71,-268 215.75,-268"/>
<polygon fill="#63b8ff" stroke="#63b8ff" points="239.83,-271.5 249.83,-268 239.83,-264.5 239.83,-271.5"/>
</a>
</g>
</g>
<!-- Node10 -->
<g id="Node000010" class="node">
<title>Node10</title>
<g id="a_Node000010"><a xlink:href="class_my_tcp_server.html#af78a6dd06ea3553f56fb0b9a5d3ef228" target="_top" xlink:title=" ">
<polygon fill="white" stroke="#666666" points="207.12,-240 86.12,-240 86.12,-220 207.12,-220 207.12,-240"/>
<text xml:space="preserve" text-anchor="middle" x="146.62" y="-226.5" font-family="Helvetica,sans-Serif" font-size="10.00">MyTcpServer::operator=</text>
</a>
</g>
</g>
<!-- Node6&#45;&gt;Node10 -->
<g id="edge12_Node000006_Node000010" class="edge">
<title>Node6&#45;&gt;Node10</title>
<g id="a_edge12_Node000006_Node000010"><a xlink:title=" ">
<path fill="none" stroke="#63b8ff" d="M260.82,-255.08C239.3,-250.31 215.2,-244.97 194.78,-240.45"/>
<polygon fill="#63b8ff" stroke="#63b8ff" points="259.81,-258.44 270.33,-257.19 261.32,-251.61 259.81,-258.44"/>
</a>
</g>
</g>
<!-- Node8 -->
<g id="Node000008" class="node">
<title>Node8</title>
<g id="a_Node000008"><a xlink:href="main_8cpp.html#a0ddf1224851353fc92bfbff6f499fa97" target="_top" xlink:title="Точка входа серверного приложения.">
<polygon fill="white" stroke="#666666" points="41.87,-316 4.87,-316 4.87,-296 41.87,-296 41.87,-316"/>
<text xml:space="preserve" text-anchor="middle" x="23.37" y="-302.5" font-family="Helvetica,sans-Serif" font-size="10.00">main</text>
</a>
</g>
</g>
<!-- Node7&#45;&gt;Node8 -->
<g id="edge9_Node000007_Node000008" class="edge">
<title>Node7&#45;&gt;Node8</title>
<g id="a_edge9_Node000007_Node000008"><a xlink:title=" ">
<path fill="none" stroke="#63b8ff" d="M69.85,-306C59.67,-306 50.09,-306 42.37,-306"/>
<polygon fill="#63b8ff" stroke="#63b8ff" points="69.58,-309.5 79.58,-306 69.58,-302.5 69.58,-309.5"/>
</a>
</g>
</g>
<!-- Node8&#45;&gt;Node8 -->
<g id="edge10_Node000008_Node000008" class="edge">
<title>Node8&#45;&gt;Node8</title>
<g id="a_edge10_Node000008_Node000008"><a xlink:title=" ">
<path fill="none" stroke="#63b8ff" d="M45.75,-326.48C43.49,-330.85 36.04,-334 23.37,-334 1.47,-334 -4.87,-324.57 4.37,-315.76"/>
<polygon fill="#63b8ff" stroke="#63b8ff" points="49.17,-325.69 42.82,-317.2 42.49,-327.79 49.17,-325.69"/>
</a>
</g>
</g>
<!-- Node11&#45;&gt;Node3 -->
<g id="edge15_Node000011_Node000003" class="edge">
<title>Node11&#45;&gt;Node3</title>
<g id="a_edge15_Node000011_Node000003"><a xlink:title=" ">
<path fill="none" stroke="#63b8ff" d="M957.92,-118.2C952.15,-123.97 946.01,-130.54 940.87,-137 907.55,-178.9 876.03,-234.82 863.65,-257.64"/>
<polygon fill="#63b8ff" stroke="#63b8ff" points="960.11,-120.95 964.85,-111.48 955.24,-115.93 960.11,-120.95"/>
</a>
</g>
</g>
<!-- Node11&#45;&gt;Node11 -->
<g id="edge14_Node000011_Node000011" class="edge">
<title>Node11&#45;&gt;Node11</title>
<g id="a_edge14_Node000011_Node000011"><a xlink:title=" ">
<path fill="none" stroke="#63b8ff" d="M999.95,-121.44C997.19,-125.3 990.03,-128 978.5,-128 957.4,-128 950.97,-118.98 959.21,-110.34"/>
<polygon fill="#63b8ff" stroke="#63b8ff" points="1003.42,-120.97 998.07,-111.82 996.55,-122.31 1003.42,-120.97"/>
</a>
</g>
</g>
<!-- Node12&#45;&gt;Node3 -->
<g id="edge18_Node000012_Node000003" class="edge">
<title>Node12&#45;&gt;Node3</title>
<g id="a_edge18_Node000012_Node000003"><a xlink:title=" ">
<path fill="none" stroke="#63b8ff" d="M1264.1,-52.46C1188.56,-35.36 1039.14,-13.96 940.87,-81 878.4,-123.61 862.6,-224.77 859.05,-257.55"/>
<polygon fill="#63b8ff" stroke="#63b8ff" points="1263.13,-55.82 1273.66,-54.7 1264.72,-49.01 1263.13,-55.82"/>
</a>
</g>
</g>
<!-- Node12&#45;&gt;Node12 -->
<g id="edge17_Node000012_Node000012" class="edge">
<title>Node12&#45;&gt;Node12</title>
<g id="a_edge17_Node000012_Node000012"><a xlink:title=" ">
<path fill="none" stroke="#63b8ff" d="M1345.23,-86.11C1341.32,-90.14 1330.36,-93 1312.37,-93 1280.39,-93 1270.64,-83.98 1283.14,-75.34"/>
<polygon fill="#63b8ff" stroke="#63b8ff" points="1348.6,-85.13 1342.09,-76.77 1341.97,-87.37 1348.6,-85.13"/>
</a>
</g>
</g>
<!-- Node14 -->
<g id="Node000014" class="node">
<title>Node14</title>
<g id="a_Node000014"><a xlink:href="class_database_manager.html#aa162d97472e6c31a4e873adda435dbb6" target="_top" xlink:title=" ">
<polygon fill="white" stroke="#666666" points="1384.12,-212 1240.62,-212 1240.62,-180 1384.12,-180 1384.12,-212"/>
<text xml:space="preserve" text-anchor="start" x="1248.62" y="-198.5" font-family="Helvetica,sans-Serif" font-size="10.00">DatabaseManager::Database</text>
<text xml:space="preserve" text-anchor="middle" x="1312.37" y="-186.5" font-family="Helvetica,sans-Serif" font-size="10.00">Manager</text>
</a>
</g>
</g>
<!-- Node13&#45;&gt;Node14 -->
<g id="edge20_Node000013_Node000014" class="edge">
<title>Node13&#45;&gt;Node14</title>
<g id="a_edge20_Node000013_Node000014"><a xlink:title=" ">
<path fill="none" stroke="#63b8ff" d="M1416.24,-186.88C1405.63,-187.82 1394.91,-188.77 1384.59,-189.69"/>
<polygon fill="#63b8ff" stroke="#63b8ff" points="1416.52,-190.37 1426.17,-186 1415.9,-183.4 1416.52,-190.37"/>
</a>
</g>
</g>
<!-- Node15 -->
<g id="Node000015" class="node">
<title>Node15</title>
<g id="a_Node000015"><a xlink:href="class_database_manager.html#aefa3d6eae7782904f5d758462b573b1e" target="_top" xlink:title=" ">
<polygon fill="white" stroke="#666666" points="1200.12,-234 1056.62,-234 1056.62,-202 1200.12,-202 1200.12,-234"/>
<text xml:space="preserve" text-anchor="start" x="1064.62" y="-220.5" font-family="Helvetica,sans-Serif" font-size="10.00">DatabaseManager::Database</text>
<text xml:space="preserve" text-anchor="middle" x="1128.37" y="-208.5" font-family="Helvetica,sans-Serif" font-size="10.00">Manager</text>
</a>
</g>
</g>
<!-- Node14&#45;&gt;Node15 -->
<g id="edge21_Node000014_Node000015" class="edge">
<title>Node14&#45;&gt;Node15</title>
<g id="a_edge21_Node000014_Node000015"><a xlink:title=" ">
<path fill="none" stroke="#63b8ff" d="M1229.09,-205.95C1219.54,-207.1 1209.86,-208.27 1200.47,-209.41"/>
<polygon fill="#63b8ff" stroke="#63b8ff" points="1229.21,-209.46 1238.72,-204.78 1228.37,-202.51 1229.21,-209.46"/>
</a>
</g>
</g>
<!-- Node16 -->
<g id="Node000016" class="node">
<title>Node16</title>
<g id="a_Node000016"><a xlink:href="class_database_manager.html#adc77584b498f23cb33c9fc2d0422a73f" target="_top" xlink:title=" ">
<polygon fill="white" stroke="#666666" points="1204.62,-278 1052.12,-278 1052.12,-258 1204.62,-258 1204.62,-278"/>
<text xml:space="preserve" text-anchor="middle" x="1128.37" y="-264.5" font-family="Helvetica,sans-Serif" font-size="10.00">DatabaseManager::getInstance</text>
</a>
</g>
</g>
<!-- Node14&#45;&gt;Node16 -->
<g id="edge22_Node000014_Node000016" class="edge">
<title>Node14&#45;&gt;Node16</title>
<g id="a_edge22_Node000014_Node000016"><a xlink:title=" ">
<path fill="none" stroke="#63b8ff" d="M1266.23,-217C1247.36,-225.48 1225.09,-235.11 1204.62,-243 1191.13,-248.2 1176.05,-253.34 1162.95,-257.59"/>
<polygon fill="#63b8ff" stroke="#63b8ff" points="1267.58,-220.23 1275.24,-212.92 1264.69,-213.86 1267.58,-220.23"/>
</a>
</g>
</g>
<!-- Node23 -->
<g id="Node000023" class="node">
<title>Node23</title>
<g id="a_Node000023"><a xlink:href="class_database_manager.html#ab5a4c00314aae0887ac7a1495f6b803c" target="_top" xlink:title=" ">
<polygon fill="white" stroke="#666666" points="1199.75,-184 1057,-184 1057,-164 1199.75,-164 1199.75,-184"/>
<text xml:space="preserve" text-anchor="middle" x="1128.37" y="-170.5" font-family="Helvetica,sans-Serif" font-size="10.00">DatabaseManager::operator=</text>
</a>
</g>
</g>
<!-- Node14&#45;&gt;Node23 -->
<g id="edge43_Node000014_Node000023" class="edge">
<title>Node14&#45;&gt;Node23</title>
<g id="a_edge43_Node000014_Node000023"><a xlink:title=" ">
<path fill="none" stroke="#63b8ff" d="M1229.01,-186.04C1219.38,-184.88 1209.62,-183.7 1200.17,-182.56"/>
<polygon fill="#63b8ff" stroke="#63b8ff" points="1228.37,-189.49 1238.72,-187.22 1229.21,-182.54 1228.37,-189.49"/>
</a>
</g>
</g>
<!-- Node16&#45;&gt;Node2 -->
<g id="edge26_Node000016_Node000002" class="edge">
<title>Node16&#45;&gt;Node2</title>
<g id="a_edge26_Node000016_Node000002"><a xlink:title=" ">
<path fill="none" stroke="#63b8ff" d="M1113.27,-287.47C1097.21,-310.16 1070.78,-349.15 1052.12,-385 1032.61,-422.48 1044.62,-441.8 1016.12,-473 1013.03,-476.38 1009.19,-479.26 1005.18,-481.68"/>
<polygon fill="#63b8ff" stroke="#63b8ff" points="1116,-289.66 1118.97,-279.49 1110.31,-285.59 1116,-289.66"/>
</a>
</g>
</g>
<!-- Node16&#45;&gt;Node11 -->
<g id="edge42_Node000016_Node000011" class="edge">
<title>Node16&#45;&gt;Node11</title>
<g id="a_edge42_Node000016_Node000011"><a xlink:title=" ">
<path fill="none" stroke="#63b8ff" d="M1064.52,-252.42C1060.01,-249.76 1055.79,-246.65 1052.12,-243 1016.82,-207.94 1042.29,-179.32 1016.12,-137 1009.85,-126.85 1000.3,-117.33 992.53,-110.49"/>
<polygon fill="#63b8ff" stroke="#63b8ff" points="1062.95,-255.54 1073.46,-256.87 1066.07,-249.28 1062.95,-255.54"/>
</a>
</g>
</g>
<!-- Node17 -->
<g id="Node000017" class="node">
<title>Node17</title>
<g id="a_Node000017"><a xlink:href="server__functions_8cpp.html#ac0fd90bd5f47d004cf60b567c43cf077" target="_top" xlink:title="Проверяет ответ и обновляет статистику активного задания.">
<polygon fill="white" stroke="#666666" points="1014.25,-446 942.75,-446 942.75,-426 1014.25,-426 1014.25,-446"/>
<text xml:space="preserve" text-anchor="middle" x="978.5" y="-432.5" font-family="Helvetica,sans-Serif" font-size="10.00">cmd_answer</text>
</a>
</g>
</g>
<!-- Node16&#45;&gt;Node17 -->
<g id="edge23_Node000016_Node000017" class="edge">
<title>Node16&#45;&gt;Node17</title>
<g id="a_edge23_Node000016_Node000017"><a xlink:title=" ">
<path fill="none" stroke="#63b8ff" d="M1116.49,-287.92C1098.81,-318.8 1061.25,-378.68 1016.12,-417 1012.3,-420.25 1007.83,-423.14 1003.35,-425.62"/>
<polygon fill="#63b8ff" stroke="#63b8ff" points="1119.31,-290.04 1121.15,-279.6 1113.21,-286.61 1119.31,-290.04"/>
</a>
</g>
</g>
<!-- Node18 -->
<g id="Node000018" class="node">
<title>Node18</title>
<g id="a_Node000018"><a xlink:href="server__functions_8cpp.html#a6387a2703c8a2a88b2122c3b5896fc41" target="_top" xlink:title=" ">
<polygon fill="white" stroke="#666666" points="1004.87,-390 952.12,-390 952.12,-370 1004.87,-370 1004.87,-390"/>
<text xml:space="preserve" text-anchor="middle" x="978.5" y="-376.5" font-family="Helvetica,sans-Serif" font-size="10.00">cmd_del</text>
</a>
</g>
</g>
<!-- Node16&#45;&gt;Node18 -->
<g id="edge27_Node000016_Node000018" class="edge">
<title>Node16&#45;&gt;Node18</title>
<g id="a_edge27_Node000016_Node000018"><a xlink:title=" ">
<path fill="none" stroke="#63b8ff" d="M1108.44,-286.04C1087.08,-305.85 1050.77,-337.93 1016.12,-361 1011.59,-364.02 1006.52,-366.92 1001.63,-369.5"/>
<polygon fill="#63b8ff" stroke="#63b8ff" points="1110.63,-288.79 1115.53,-279.39 1105.84,-283.68 1110.63,-288.79"/>
</a>
</g>
</g>
<!-- Node19 -->
<g id="Node000019" class="node">
<title>Node19</title>
<g id="a_Node000019"><a xlink:href="server__functions_8cpp.html#a90489a136779444aae8d20b3a78412d5" target="_top" xlink:title="Возвращает личную статистику по одному или всем типам заданий.">
<polygon fill="white" stroke="#666666" points="1016.12,-334 940.87,-334 940.87,-314 1016.12,-314 1016.12,-334"/>
<text xml:space="preserve" text-anchor="middle" x="978.5" y="-320.5" font-family="Helvetica,sans-Serif" font-size="10.00">cmd_mystats</text>
</a>
</g>
</g>
<!-- Node16&#45;&gt;Node19 -->
<g id="edge30_Node000016_Node000019" class="edge">
<title>Node16&#45;&gt;Node19</title>
<g id="a_edge30_Node000016_Node000019"><a xlink:title=" ">
<path fill="none" stroke="#63b8ff" d="M1089.4,-282.38C1063.67,-292.12 1030.27,-304.77 1007.07,-313.56"/>
<polygon fill="#63b8ff" stroke="#63b8ff" points="1090.38,-285.75 1098.49,-278.94 1087.9,-279.21 1090.38,-285.75"/>
</a>
</g>
</g>
<!-- Node20 -->
<g id="Node000020" class="node">
<title>Node20</title>
<g id="a_Node000020"><a xlink:href="server__functions_8cpp.html#a33acd3f8a2873fdbbe3f525c3b2e4c26" target="_top" xlink:title=" ">
<polygon fill="white" stroke="#666666" points="1005.25,-278 951.75,-278 951.75,-258 1005.25,-258 1005.25,-278"/>
<text xml:space="preserve" text-anchor="middle" x="978.5" y="-264.5" font-family="Helvetica,sans-Serif" font-size="10.00">cmd_reg</text>
</a>
</g>
</g>
<!-- Node16&#45;&gt;Node20 -->
<g id="edge33_Node000016_Node000020" class="edge">
<title>Node16&#45;&gt;Node20</title>
<g id="a_edge33_Node000016_Node000020"><a xlink:title=" ">
<path fill="none" stroke="#63b8ff" d="M1040.46,-268C1027.77,-268 1015.61,-268 1005.53,-268"/>
<polygon fill="#63b8ff" stroke="#63b8ff" points="1040.19,-271.5 1050.19,-268 1040.19,-264.5 1040.19,-271.5"/>
</a>
</g>
</g>
<!-- Node21 -->
<g id="Node000021" class="node">
<title>Node21</title>
<g id="a_Node000021"><a xlink:href="server__functions_8cpp.html#a0213d3193cca60e6b49b6e5cbe99ca87" target="_top" xlink:title=" ">
<polygon fill="white" stroke="#666666" points="1006.37,-222 950.62,-222 950.62,-202 1006.37,-202 1006.37,-222"/>
<text xml:space="preserve" text-anchor="middle" x="978.5" y="-208.5" font-family="Helvetica,sans-Serif" font-size="10.00">cmd_role</text>
</a>
</g>
</g>
<!-- Node16&#45;&gt;Node21 -->
<g id="edge36_Node000016_Node000021" class="edge">
<title>Node16&#45;&gt;Node21</title>
<g id="a_edge36_Node000016_Node000021"><a xlink:title=" ">
<path fill="none" stroke="#63b8ff" d="M1083.03,-253.95C1072.82,-250.52 1062.05,-246.76 1052.12,-243 1035.33,-236.64 1016.7,-228.67 1002.52,-222.4"/>
<polygon fill="#63b8ff" stroke="#63b8ff" points="1081.79,-257.22 1092.39,-257.04 1083.99,-250.58 1081.79,-257.22"/>
</a>
</g>
</g>
<!-- Node22 -->
<g id="Node000022" class="node">
<title>Node22</title>
<g id="a_Node000022"><a xlink:href="server__functions_8cpp.html#afff7fee86461ffb5eba5ef712b323668" target="_top" xlink:title=" ">
<polygon fill="white" stroke="#666666" points="1009.37,-166 947.62,-166 947.62,-146 1009.37,-146 1009.37,-166"/>
<text xml:space="preserve" text-anchor="middle" x="978.5" y="-152.5" font-family="Helvetica,sans-Serif" font-size="10.00">cmd_stats</text>
</a>
</g>
</g>
<!-- Node16&#45;&gt;Node22 -->
<g id="edge39_Node000016_Node000022" class="edge">
<title>Node16&#45;&gt;Node22</title>
<g id="a_edge39_Node000016_Node000022"><a xlink:title=" ">
<path fill="none" stroke="#63b8ff" d="M1070.59,-253.5C1064.05,-250.59 1057.73,-247.12 1052.12,-243 1030.06,-226.78 1033.81,-213.91 1016.12,-193 1008.07,-183.48 998.05,-173.47 990.53,-166.27"/>
<polygon fill="#63b8ff" stroke="#63b8ff" points="1068.99,-256.63 1079.57,-257.07 1071.57,-250.12 1068.99,-256.63"/>
</a>
</g>
</g>
<!-- Node17&#45;&gt;Node3 -->
<g id="edge25_Node000017_Node000003" class="edge">
<title>Node17&#45;&gt;Node3</title>
<g id="a_edge25_Node000017_Node000003"><a xlink:title=" ">
<path fill="none" stroke="#63b8ff" d="M943.19,-419.1C942.39,-418.42 941.61,-417.72 940.87,-417 897.37,-374.72 870.48,-304.61 861.49,-278.35"/>
<polygon fill="#63b8ff" stroke="#63b8ff" points="941.07,-421.89 951.28,-424.72 945.06,-416.14 941.07,-421.89"/>
</a>
</g>
</g>
<!-- Node17&#45;&gt;Node17 -->
<g id="edge24_Node000017_Node000017" class="edge">
<title>Node17&#45;&gt;Node17</title>
<g id="a_edge24_Node000017_Node000017"><a xlink:title=" ">
<path fill="none" stroke="#63b8ff" d="M999.95,-457.44C997.19,-461.3 990.03,-464 978.5,-464 957.4,-464 950.97,-454.98 959.21,-446.34"/>
<polygon fill="#63b8ff" stroke="#63b8ff" points="1003.42,-456.97 998.07,-447.82 996.55,-458.31 1003.42,-456.97"/>
</a>
</g>
</g>
<!-- Node18&#45;&gt;Node3 -->
<g id="edge29_Node000018_Node000003" class="edge">
<title>Node18&#45;&gt;Node3</title>
<g id="a_edge29_Node000018_Node000003"><a xlink:title=" ">
<path fill="none" stroke="#63b8ff" d="M944.44,-363.6C943.21,-362.76 942.02,-361.89 940.87,-361 908.46,-335.79 878.58,-296.77 865.32,-278.33"/>
<polygon fill="#63b8ff" stroke="#63b8ff" points="942.59,-366.58 952.95,-368.78 946.23,-360.6 942.59,-366.58"/>
</a>
</g>
</g>
<!-- Node18&#45;&gt;Node18 -->
<g id="edge28_Node000018_Node000018" class="edge">
<title>Node18&#45;&gt;Node18</title>
<g id="a_edge28_Node000018_Node000018"><a xlink:title=" ">
<path fill="none" stroke="#63b8ff" d="M999.95,-401.44C997.19,-405.3 990.03,-408 978.5,-408 957.4,-408 950.97,-398.98 959.21,-390.34"/>
<polygon fill="#63b8ff" stroke="#63b8ff" points="1003.42,-400.97 998.07,-391.82 996.55,-402.31 1003.42,-400.97"/>
</a>
</g>
</g>
<!-- Node19&#45;&gt;Node3 -->
<g id="edge32_Node000019_Node000003" class="edge">
<title>Node19&#45;&gt;Node3</title>
<g id="a_edge32_Node000019_Node000003"><a xlink:title=" ">
<path fill="none" stroke="#63b8ff" d="M945.13,-308.82C924.53,-299.15 898.4,-286.9 880.18,-278.35"/>
<polygon fill="#63b8ff" stroke="#63b8ff" points="943.41,-311.88 953.95,-312.96 946.39,-305.54 943.41,-311.88"/>
</a>
</g>
</g>
<!-- Node19&#45;&gt;Node19 -->
<g id="edge31_Node000019_Node000019" class="edge">
<title>Node19&#45;&gt;Node19</title>
<g id="a_edge31_Node000019_Node000019"><a xlink:title=" ">
<path fill="none" stroke="#63b8ff" d="M999.95,-345.44C997.19,-349.3 990.03,-352 978.5,-352 957.4,-352 950.97,-342.98 959.21,-334.34"/>
<polygon fill="#63b8ff" stroke="#63b8ff" points="1003.42,-344.97 998.07,-335.82 996.55,-346.31 1003.42,-344.97"/>
</a>
</g>
</g>
<!-- Node20&#45;&gt;Node3 -->
<g id="edge35_Node000020_Node000003" class="edge">
<title>Node20&#45;&gt;Node3</title>
<g id="a_edge35_Node000020_Node000003"><a xlink:title=" ">
<path fill="none" stroke="#63b8ff" d="M939.83,-268C928.76,-268 916.51,-268 904.94,-268"/>
<polygon fill="#63b8ff" stroke="#63b8ff" points="939.79,-271.5 949.79,-268 939.79,-264.5 939.79,-271.5"/>
</a>
</g>
</g>
<!-- Node20&#45;&gt;Node20 -->
<g id="edge34_Node000020_Node000020" class="edge">
<title>Node20&#45;&gt;Node20</title>
<g id="a_edge34_Node000020_Node000020"><a xlink:title=" ">
<path fill="none" stroke="#63b8ff" d="M999.95,-289.44C997.19,-293.3 990.03,-296 978.5,-296 957.4,-296 950.97,-286.98 959.21,-278.34"/>
<polygon fill="#63b8ff" stroke="#63b8ff" points="1003.42,-288.97 998.07,-279.82 996.55,-290.31 1003.42,-288.97"/>
</a>
</g>
</g>
<!-- Node21&#45;&gt;Node3 -->
<g id="edge38_Node000021_Node000003" class="edge">
<title>Node21&#45;&gt;Node3</title>
<g id="a_edge38_Node000021_Node000003"><a xlink:title=" ">
<path fill="none" stroke="#63b8ff" d="M945.13,-227.18C924.53,-236.85 898.4,-249.1 880.18,-257.65"/>
<polygon fill="#63b8ff" stroke="#63b8ff" points="946.39,-230.46 953.95,-223.04 943.41,-224.12 946.39,-230.46"/>
</a>
</g>
</g>
<!-- Node21&#45;&gt;Node21 -->
<g id="edge37_Node000021_Node000021" class="edge">
<title>Node21&#45;&gt;Node21</title>
<g id="a_edge37_Node000021_Node000021"><a xlink:title=" ">
<path fill="none" stroke="#63b8ff" d="M999.95,-233.44C997.19,-237.3 990.03,-240 978.5,-240 957.4,-240 950.97,-230.98 959.21,-222.34"/>
<polygon fill="#63b8ff" stroke="#63b8ff" points="1003.42,-232.97 998.07,-223.82 996.55,-234.31 1003.42,-232.97"/>
</a>
</g>
</g>
<!-- Node22&#45;&gt;Node3 -->
<g id="edge41_Node000022_Node000003" class="edge">
<title>Node22&#45;&gt;Node3</title>
<g id="a_edge41_Node000022_Node000003"><a xlink:title=" ">
<path fill="none" stroke="#63b8ff" d="M958.38,-173.94C933.11,-197.64 889.43,-238.62 869.11,-257.69"/>
<polygon fill="#63b8ff" stroke="#63b8ff" points="960.48,-176.77 965.38,-167.37 955.69,-171.66 960.48,-176.77"/>
</a>
</g>
</g>
<!-- Node22&#45;&gt;Node22 -->
<g id="edge40_Node000022_Node000022" class="edge">
<title>Node22&#45;&gt;Node22</title>
<g id="a_edge40_Node000022_Node000022"><a xlink:title=" ">
<path fill="none" stroke="#63b8ff" d="M999.95,-177.44C997.19,-181.3 990.03,-184 978.5,-184 957.4,-184 950.97,-174.98 959.21,-166.34"/>
<polygon fill="#63b8ff" stroke="#63b8ff" points="1003.42,-176.97 998.07,-167.82 996.55,-178.31 1003.42,-176.97"/>
</a>
</g>
</g>
</g>
</svg>

<g id="navigator" transform="translate(0 0)" fill="#404254">
  <rect fill="#f2f5e9" fill-opacity="0.5" stroke="#606060" stroke-width=".5" x="0" y="0" width="60" height="60"/>
  <use id="zoomplus" xlink:href="#zoomPlus" x="17" y="9" data-zoom="in"/>
  <use id="zoomminus" xlink:href="#zoomMin" x="42" y="9" data-zoom="out"/>
  <use id="reset" xlink:href="#resetDef" x="30" y="36" data-reset="true"/>
  <use id="arrowup" xlink:href="#arrowUp" x="0" y="0" data-pan-x="0" data-pan-y="-1"/>
  <use id="arrowright" xlink:href="#arrowRight" x="0" y="0" data-pan-x="1" data-pan-y="0"/>
  <use id="arrowdown" xlink:href="#arrowDown" x="0" y="0" data-pan-x="0" data-pan-y="1"/>
  <use id="arrowleft" xlink:href="#arrowLeft" x="0" y="0" data-pan-x="-1" data-pan-y="0"/>
</g>
<svg viewBox="0 0 15 15" width="100%" height="30px" preserveAspectRatio="xMaxYMin meet">
 <g id="arrow_out" transform="scale(0.3 0.3)">
  <a xlink:href="databasemanager_8h_a8ff4b8e34d22c2ca10aa6fe31da7cefa_icgraph_org.svg" target="_base">
   <rect id="button" ry="5" rx="5" y="6" x="6" height="38" width="38"
        fill="#f2f5e9" fill-opacity="0.5" stroke="#606060" stroke-width="1.0"/>
   <path id="arrow"
     d="M 11.500037,31.436501 C 11.940474,20.09759 22.043105,11.32322 32.158766,21.979434 L 37.068811,17.246167 C 37.068811,17.246167 37.088388,32 37.088388,32 L 22.160133,31.978069 C 22.160133,31.978069 26.997745,27.140456 26.997745,27.140456 C 18.528582,18.264221 13.291696,25.230495 11.500037,31.436501 z"
     style="fill:#404040;"/>
  </a>
 </g>
</svg>

<style type='text/css'>
<![CDATA[
[data-mouse-over-selected='false'] { opacity: 0.7; }
[data-mouse-over-selected='true']  { opacity: 1.0; }
]]>
</style>
</svg>
