<?xml version="1.0" encoding="UTF-8" standalone="no"?>
<!DOCTYPE svg PUBLIC "-//W3C//DTD SVG 1.1//EN"
 "http://www.w3.org/Graphics/SVG/1.1/DTD/svg11.dtd">
<!-- Generated by graphviz version 16.1.0 (20260904.0139)
 -->
<!-- Title: mainwindow.cpp Pages: 1 -->
<!--zoomable 140 -->

<svg id="main" version="1.1" xmlns="http://www.w3.org/2000/svg" xmlns:xlink="http://www.w3.org/1999/xlink" xml:space="preserve">

<style type="text/css"><![CDATA[
.node, .edge {opacity: 0.7;}
.node.selected, .edge.selected {opacity: 1;}
.edge:hover path { stroke: red; }
.edge:hover polygon { stroke: red; fill: red; }
]]></style>

<defs>
  <circle id="rim" cx="0" cy="0" r="7"/>
  <circle id="rim2" cx="0" cy="0" r="3.5"/>
  <g id="zoomPlus">
    <use xlink:href="#rim" fill="#404040"><set attributeName="fill" to="#808080" begin="zoomplus.mouseover" end="zoomplus.mouseout"/></use>
    <path d="M-4,0h8M0,-4v8" fill="none" stroke="white" stroke-width="1.5" pointer-events="none"/>
  </g>
  <g id="zoomMin">
    <use xlink:href="#rim" fill="#404040"><set attributeName="fill" to="#808080" begin="zoomminus.mouseover" end="zoomminus.mouseout"/></use>
    <path d="M-4,0h8" fill="none" stroke="white" stroke-width="1.5" pointer-events="none"/>
  </g>
  <g id="arrowUp" transform="translate(30 24)">
    <use xlink:href="#rim"/>
    <path pointer-events="none" fill="none" stroke="white" stroke-width="1.5" d="M0,-3.0v7 M-2.5,-0.5L0,-3.0L2.5,-0.5"/>
  </g>
  <g id="arrowRight" transform="rotate(90) translate(36 -43)">
    <use xlink:href="#rim"/>
    <path pointer-events="none" fill="none" stroke="white" stroke-width="1.5" d="M0,-3.0v7 M-2.5,-0.5L0,-3.0L2.5,-0.5"/>
  </g>
  <g id="arrowDown" transform="rotate(180) translate(-30 -48)">
    <use xlink:href="#rim"/>
    <path pointer-events="none" fill="none" stroke="white" stroke-width="1.5" d="M0,-3.0v7 M-2.5,-0.5L0,-3.0L2.5,-0.5"/>
  </g>
  <g id="arrowLeft" transform="rotate(270) translate(-36 17)">
    <use xlink:href="#rim"/>
    <path pointer-events="none" fill="none" stroke="white" stroke-width="1.5" d="M0,-3.0v7 M-2.5,-0.5L0,-3.0L2.5,-0.5"/>
  </g>
  <g id="resetDef">
    <use xlink:href="#rim2" fill="#404040"><set attributeName="fill" to="#808080" begin="reset.mouseover" end="reset.mouseout"/></use>
  </g>
</defs>
<script type="application/ecmascript" xlink:href="svg.min.js"/>
<svg id="graph" class="graph" data-view-width="1486" data-view-height="140" data-section-id="dynsection-0">
<g id="viewport">
<title>mainwindow.cpp</title>
<!-- Node1 -->
<g id="Node000001" class="node">
<title>Node1</title>
<g id="a_Node000001"><a xlink:title=" ">
<polygon fill="#999999" stroke="#666666" points="768.88,-132 680.88,-132 680.88,-112 768.88,-112 768.88,-132"/>
<text xml:space="preserve" text-anchor="middle" x="724.88" y="-118.5" font-family="Helvetica,sans-Serif" font-size="10.00">mainwindow.cpp</text>
</a>
</g>
</g>
<!-- Node2 -->
<g id="Node000002" class="node">
<title>Node2</title>
<g id="a_Node000002"><a xlink:href="mainwindow_8h.html" target="_top" xlink:title=" ">
<polygon fill="white" stroke="#666666" points="124.62,-76 47.12,-76 47.12,-56 124.62,-56 124.62,-76"/>
<text xml:space="preserve" text-anchor="middle" x="85.88" y="-62.5" font-family="Helvetica,sans-Serif" font-size="10.00">mainwindow.h</text>
</a>
</g>
</g>
<!-- Node1&#45;&gt;Node2 -->
<g id="edge1_Node000001_Node000002" class="edge">
<title>Node1&#45;&gt;Node2</title>
<g id="a_edge1_Node000001_Node000002"><a xlink:title=" ">
<path fill="none" stroke="#63b8ff" d="M680.59,-119.28C583.75,-115.18 345.72,-103.15 136.32,-76.18"/>
<polygon fill="#63b8ff" stroke="#63b8ff" points="136.98,-72.74 126.61,-74.91 136.08,-79.68 136.98,-72.74"/>
</a>
</g>
</g>
<!-- Node5 -->
<g id="Node000005" class="node">
<title>Node5</title>
<g id="a_Node000005"><a xlink:title=" ">
<polygon fill="#e0e0e0" stroke="#999999" points="219.25,-76 142.5,-76 142.5,-56 219.25,-56 219.25,-76"/>
<text xml:space="preserve" text-anchor="middle" x="180.88" y="-62.5" font-family="Helvetica,sans-Serif" font-size="10.00">QVBoxLayout</text>
</a>
</g>
</g>
<!-- Node1&#45;&gt;Node5 -->
<g id="edge4_Node000001_Node000005" class="edge">
<title>Node1&#45;&gt;Node5</title>
<g id="a_edge4_Node000001_Node000005"><a xlink:title=" ">
<path fill="none" stroke="#63b8ff" d="M680.49,-118.46C595.27,-113.26 402.61,-99.97 230.84,-76.29"/>
<polygon fill="#63b8ff" stroke="#63b8ff" points="231.44,-72.85 221.05,-74.93 230.47,-79.78 231.44,-72.85"/>
</a>
</g>
</g>
<!-- Node6 -->
<g id="Node000006" class="node">
<title>Node6</title>
<g id="a_Node000006"><a xlink:title=" ">
<polygon fill="#e0e0e0" stroke="#999999" points="314.62,-76 237.12,-76 237.12,-56 314.62,-56 314.62,-76"/>
<text xml:space="preserve" text-anchor="middle" x="275.88" y="-62.5" font-family="Helvetica,sans-Serif" font-size="10.00">QHBoxLayout</text>
</a>
</g>
</g>
<!-- Node1&#45;&gt;Node6 -->
<g id="edge5_Node000001_Node000006" class="edge">
<title>Node1&#45;&gt;Node6</title>
<g id="a_edge5_Node000001_Node000006"><a xlink:title=" ">
<path fill="none" stroke="#63b8ff" d="M680.41,-117.16C608.16,-110.68 460.56,-96.4 326.36,-76.44"/>
<polygon fill="#63b8ff" stroke="#63b8ff" points="326.98,-72.99 316.57,-74.97 325.94,-79.92 326.98,-72.99"/>
</a>
</g>
</g>
<!-- Node7 -->
<g id="Node000007" class="node">
<title>Node7</title>
<g id="a_Node000007"><a xlink:title=" ">
<polygon fill="#e0e0e0" stroke="#999999" points="407.5,-76 332.25,-76 332.25,-56 407.5,-56 407.5,-76"/>
<text xml:space="preserve" text-anchor="middle" x="369.88" y="-62.5" font-family="Helvetica,sans-Serif" font-size="10.00">QFormLayout</text>
</a>
</g>
</g>
<!-- Node1&#45;&gt;Node7 -->
<g id="edge6_Node000001_Node000007" class="edge">
<title>Node1&#45;&gt;Node7</title>
<g id="a_edge6_Node000001_Node000007"><a xlink:title=" ">
<path fill="none" stroke="#63b8ff" d="M680.4,-115.13C622.61,-107.36 518.28,-92.87 418.96,-76.29"/>
<polygon fill="#63b8ff" stroke="#63b8ff" points="419.75,-72.87 409.31,-74.66 418.59,-79.77 419.75,-72.87"/>
</a>
</g>
</g>
<!-- Node8 -->
<g id="Node000008" class="node">
<title>Node8</title>
<g id="a_Node000008"><a xlink:title=" ">
<polygon fill="#e0e0e0" stroke="#999999" points="492.38,-76 425.38,-76 425.38,-56 492.38,-56 492.38,-76"/>
<text xml:space="preserve" text-anchor="middle" x="458.88" y="-62.5" font-family="Helvetica,sans-Serif" font-size="10.00">QGroupBox</text>
</a>
</g>
</g>
<!-- Node1&#45;&gt;Node8 -->
<g id="edge7_Node000001_Node000008" class="edge">
<title>Node1&#45;&gt;Node8</title>
<g id="a_edge7_Node000001_Node000008"><a xlink:title=" ">
<path fill="none" stroke="#63b8ff" d="M680.43,-112.13C637.78,-103.6 571.26,-90.23 503.92,-76.41"/>
<polygon fill="#63b8ff" stroke="#63b8ff" points="504.65,-72.99 494.15,-74.4 503.24,-79.84 504.65,-72.99"/>
</a>
</g>
</g>
<!-- Node9 -->
<g id="Node000009" class="node">
<title>Node9</title>
<g id="a_Node000009"><a xlink:title=" ">
<polygon fill="#e0e0e0" stroke="#999999" points="557.25,-76 510.5,-76 510.5,-56 557.25,-56 557.25,-76"/>
<text xml:space="preserve" text-anchor="middle" x="533.88" y="-62.5" font-family="Helvetica,sans-Serif" font-size="10.00">QLabel</text>
</a>
</g>
</g>
<!-- Node1&#45;&gt;Node9 -->
<g id="edge8_Node000001_Node000009" class="edge">
<title>Node1&#45;&gt;Node9</title>
<g id="a_edge8_Node000001_Node000009"><a xlink:title=" ">
<path fill="none" stroke="#63b8ff" d="M691.61,-111.59C657.08,-101.83 603.33,-86.64 568.36,-76.75"/>
<polygon fill="#63b8ff" stroke="#63b8ff" points="569.75,-73.5 559.17,-74.15 567.84,-80.24 569.75,-73.5"/>
</a>
</g>
</g>
<!-- Node10 -->
<g id="Node000010" class="node">
<title>Node10</title>
<g id="a_Node000010"><a xlink:title=" ">
<polygon fill="#e0e0e0" stroke="#999999" points="634.25,-76 575.5,-76 575.5,-56 634.25,-56 634.25,-76"/>
<text xml:space="preserve" text-anchor="middle" x="604.88" y="-62.5" font-family="Helvetica,sans-Serif" font-size="10.00">QLineEdit</text>
</a>
</g>
</g>
<!-- Node1&#45;&gt;Node10 -->
<g id="edge9_Node000001_Node000010" class="edge">
<title>Node1&#45;&gt;Node10</title>
<g id="a_edge9_Node000001_Node000010"><a xlink:title=" ">
<path fill="none" stroke="#63b8ff" d="M703.97,-111.59C685.25,-103.17 657.52,-90.69 636.15,-81.07"/>
<polygon fill="#63b8ff" stroke="#63b8ff" points="637.88,-78.01 627.32,-77.1 635,-84.4 637.88,-78.01"/>
</a>
</g>
</g>
<!-- Node11 -->
<g id="Node000011" class="node">
<title>Node11</title>
<g id="a_Node000011"><a xlink:title=" ">
<polygon fill="#e0e0e0" stroke="#999999" points="713,-76 652.75,-76 652.75,-56 713,-56 713,-76"/>
<text xml:space="preserve" text-anchor="middle" x="682.88" y="-62.5" font-family="Helvetica,sans-Serif" font-size="10.00">QSpinBox</text>
</a>
</g>
</g>
<!-- Node1&#45;&gt;Node11 -->
<g id="edge10_Node000001_Node000011" class="edge">
<title>Node1&#45;&gt;Node11</title>
<g id="a_edge10_Node000001_Node000011"><a xlink:title=" ">
<path fill="none" stroke="#63b8ff" d="M717.56,-111.59C711.9,-104.32 703.89,-94.02 696.99,-85.15"/>
<polygon fill="#63b8ff" stroke="#63b8ff" points="699.94,-83.24 691.04,-77.49 694.41,-87.54 699.94,-83.24"/>
</a>
</g>
</g>
<!-- Node12 -->
<g id="Node000012" class="node">
<title>Node12</title>
<g id="a_Node000012"><a xlink:title=" ">
<polygon fill="#e0e0e0" stroke="#999999" points="803,-76 730.75,-76 730.75,-56 803,-56 803,-76"/>
<text xml:space="preserve" text-anchor="middle" x="766.88" y="-62.5" font-family="Helvetica,sans-Serif" font-size="10.00">QComboBox</text>
</a>
</g>
</g>
<!-- Node1&#45;&gt;Node12 -->
<g id="edge11_Node000001_Node000012" class="edge">
<title>Node1&#45;&gt;Node12</title>
<g id="a_edge11_Node000001_Node000012"><a xlink:title=" ">
<path fill="none" stroke="#63b8ff" d="M732.19,-111.59C737.85,-104.32 745.86,-94.02 752.76,-85.15"/>
<polygon fill="#63b8ff" stroke="#63b8ff" points="755.34,-87.54 758.71,-77.49 749.81,-83.24 755.34,-87.54"/>
</a>
</g>
</g>
<!-- Node13 -->
<g id="Node000013" class="node">
<title>Node13</title>
<g id="a_Node000013"><a xlink:title=" ">
<polygon fill="#e0e0e0" stroke="#999999" points="895.12,-76 820.62,-76 820.62,-56 895.12,-56 895.12,-76"/>
<text xml:space="preserve" text-anchor="middle" x="857.88" y="-62.5" font-family="Helvetica,sans-Serif" font-size="10.00">QPushButton</text>
</a>
</g>
</g>
<!-- Node1&#45;&gt;Node13 -->
<g id="edge12_Node000001_Node000013" class="edge">
<title>Node1&#45;&gt;Node13</title>
<g id="a_edge12_Node000001_Node000013"><a xlink:title=" ">
<path fill="none" stroke="#63b8ff" d="M748.04,-111.59C769.08,-103.05 800.37,-90.35 824.18,-80.68"/>
<polygon fill="#63b8ff" stroke="#63b8ff" points="825.18,-84.05 833.13,-77.05 822.54,-77.57 825.18,-84.05"/>
</a>
</g>
</g>
<!-- Node14 -->
<g id="Node000014" class="node">
<title>Node14</title>
<g id="a_Node000014"><a xlink:title=" ">
<polygon fill="#e0e0e0" stroke="#999999" points="994.5,-76 913.25,-76 913.25,-56 994.5,-56 994.5,-76"/>
<text xml:space="preserve" text-anchor="middle" x="953.88" y="-62.5" font-family="Helvetica,sans-Serif" font-size="10.00">QPlainTextEdit</text>
</a>
</g>
</g>
<!-- Node1&#45;&gt;Node14 -->
<g id="edge13_Node000001_Node000014" class="edge">
<title>Node1&#45;&gt;Node14</title>
<g id="a_edge13_Node000001_Node000014"><a xlink:title=" ">
<path fill="none" stroke="#63b8ff" d="M765.03,-111.53C803.33,-102.5 861.2,-88.85 902.77,-79.05"/>
<polygon fill="#63b8ff" stroke="#63b8ff" points="903.37,-82.51 912.3,-76.8 901.76,-75.69 903.37,-82.51"/>
</a>
</g>
</g>
<!-- Node15 -->
<g id="Node000015" class="node">
<title>Node15</title>
<g id="a_Node000015"><a xlink:title=" ">
<polygon fill="#e0e0e0" stroke="#999999" points="1089.62,-76 1012.12,-76 1012.12,-56 1089.62,-56 1089.62,-76"/>
<text xml:space="preserve" text-anchor="middle" x="1050.88" y="-62.5" font-family="Helvetica,sans-Serif" font-size="10.00">QRadioButton</text>
</a>
</g>
</g>
<!-- Node1&#45;&gt;Node15 -->
<g id="edge14_Node000001_Node000015" class="edge">
<title>Node1&#45;&gt;Node15</title>
<g id="a_edge14_Node000001_Node000015"><a xlink:title=" ">
<path fill="none" stroke="#63b8ff" d="M768.92,-114.3C821.7,-106.19 913.12,-91.85 1000.47,-76.57"/>
<polygon fill="#63b8ff" stroke="#63b8ff" points="1000.92,-80.04 1010.16,-74.86 999.71,-73.15 1000.92,-80.04"/>
</a>
</g>
</g>
<!-- Node16 -->
<g id="Node000016" class="node">
<title>Node16</title>
<g id="a_Node000016"><a xlink:title=" ">
<polygon fill="#e0e0e0" stroke="#999999" points="1186,-76 1107.75,-76 1107.75,-56 1186,-56 1186,-76"/>
<text xml:space="preserve" text-anchor="middle" x="1146.88" y="-62.5" font-family="Helvetica,sans-Serif" font-size="10.00">QButtonGroup</text>
</a>
</g>
</g>
<!-- Node1&#45;&gt;Node16 -->
<g id="edge15_Node000001_Node000016" class="edge">
<title>Node1&#45;&gt;Node16</title>
<g id="a_edge15_Node000001_Node000016"><a xlink:title=" ">
<path fill="none" stroke="#63b8ff" d="M769.33,-116.6C837.47,-109.66 972.08,-95.12 1096.15,-76.33"/>
<polygon fill="#63b8ff" stroke="#63b8ff" points="1096.5,-79.82 1105.86,-74.85 1095.45,-72.9 1096.5,-79.82"/>
</a>
</g>
</g>
<!-- Node17 -->
<g id="Node000017" class="node">
<title>Node17</title>
<g id="a_Node000017"><a xlink:title=" ">
<polygon fill="#e0e0e0" stroke="#999999" points="1293.25,-76 1204.5,-76 1204.5,-56 1293.25,-56 1293.25,-76"/>
<text xml:space="preserve" text-anchor="middle" x="1248.88" y="-62.5" font-family="Helvetica,sans-Serif" font-size="10.00">QAbstractButton</text>
</a>
</g>
</g>
<!-- Node1&#45;&gt;Node17 -->
<g id="edge16_Node000001_Node000017" class="edge">
<title>Node1&#45;&gt;Node17</title>
<g id="a_edge16_Node000001_Node000017"><a xlink:title=" ">
<path fill="none" stroke="#63b8ff" d="M769.05,-117.8C850.6,-111.68 1030.51,-97.12 1192.95,-76.16"/>
<polygon fill="#63b8ff" stroke="#63b8ff" points="1193.16,-79.66 1202.62,-74.9 1192.25,-72.72 1193.16,-79.66"/>
</a>
</g>
</g>
<!-- Node18 -->
<g id="Node000018" class="node">
<title>Node18</title>
<g id="a_Node000018"><a xlink:title=" ">
<polygon fill="#e0e0e0" stroke="#999999" points="1416.88,-76 1310.88,-76 1310.88,-56 1416.88,-56 1416.88,-76"/>
<text xml:space="preserve" text-anchor="middle" x="1363.88" y="-62.5" font-family="Helvetica,sans-Serif" font-size="10.00">QRegularExpression</text>
</a>
</g>
</g>
<!-- Node1&#45;&gt;Node18 -->
<g id="edge17_Node000001_Node000018" class="edge">
<title>Node1&#45;&gt;Node18</title>
<g id="a_edge17_Node000001_Node000018"><a xlink:title=" ">
<path fill="none" stroke="#63b8ff" d="M769.13,-118.55C864.17,-113.08 1095.11,-98.63 1299.23,-76.23"/>
<polygon fill="#63b8ff" stroke="#63b8ff" points="1299.41,-79.73 1308.97,-75.15 1298.64,-72.77 1299.41,-79.73"/>
</a>
</g>
</g>
<!-- Node19 -->
<g id="Node000019" class="node">
<title>Node19</title>
<g id="a_Node000019"><a xlink:title=" ">
<polygon fill="#e0e0e0" stroke="#999999" points="1478.38,-76 1435.38,-76 1435.38,-56 1478.38,-56 1478.38,-76"/>
<text xml:space="preserve" text-anchor="middle" x="1456.88" y="-62.5" font-family="Helvetica,sans-Serif" font-size="10.00">QFont</text>
</a>
</g>
</g>
<!-- Node1&#45;&gt;Node19 -->
<g id="edge18_Node000001_Node000019" class="edge">
<title>Node1&#45;&gt;Node19</title>
<g id="a_edge18_Node000001_Node000019"><a xlink:title=" ">
<path fill="none" stroke="#63b8ff" d="M769.15,-121.49C878.82,-122.01 1171.77,-119.05 1423.79,-75.94"/>
<polygon fill="#63b8ff" stroke="#63b8ff" points="1424.26,-79.41 1433.51,-74.25 1423.06,-72.52 1424.26,-79.41"/>
</a>
</g>
</g>
<!-- Node3 -->
<g id="Node000003" class="node">
<title>Node3</title>
<g id="a_Node000003"><a xlink:title=" ">
<polygon fill="#e0e0e0" stroke="#999999" points="79.75,-20 0,-20 0,0 79.75,0 79.75,-20"/>
<text xml:space="preserve" text-anchor="middle" x="39.88" y="-6.5" font-family="Helvetica,sans-Serif" font-size="10.00">QMainWindow</text>
</a>
</g>
</g>
<!-- Node2&#45;&gt;Node3 -->
<g id="edge2_Node000002_Node000003" class="edge">
<title>Node2&#45;&gt;Node3</title>
<g id="a_edge2_Node000002_Node000003"><a xlink:title=" ">
<path fill="none" stroke="#63b8ff" d="M77.86,-55.59C71.6,-48.24 62.7,-37.8 55.09,-28.87"/>
<polygon fill="#63b8ff" stroke="#63b8ff" points="57.93,-26.79 48.78,-21.45 52.6,-31.33 57.93,-26.79"/>
</a>
</g>
</g>
<!-- Node4 -->
<g id="Node000004" class="node">
<title>Node4</title>
<g id="a_Node000004"><a xlink:title=" ">
<polygon fill="#e0e0e0" stroke="#999999" points="167.88,-20 97.88,-20 97.88,0 167.88,0 167.88,-20"/>
<text xml:space="preserve" text-anchor="middle" x="132.88" y="-6.5" font-family="Helvetica,sans-Serif" font-size="10.00">QTcpSocket</text>
</a>
</g>
</g>
<!-- Node2&#45;&gt;Node4 -->
<g id="edge3_Node000002_Node000004" class="edge">
<title>Node2&#45;&gt;Node4</title>
<g id="a_edge3_Node000002_Node000004"><a xlink:title=" ">
<path fill="none" stroke="#63b8ff" d="M94.06,-55.59C100.46,-48.24 109.55,-37.8 117.33,-28.87"/>
<polygon fill="#63b8ff" stroke="#63b8ff" points="119.86,-31.28 123.79,-21.44 114.58,-26.69 119.86,-31.28"/>
</a>
</g>
</g>
</g>
</svg>

<g id="navigator" transform="translate(0 0)" fill="#404254">
  <rect fill="#f2f5e9" fill-opacity="0.5" stroke="#606060" stroke-width=".5" x="0" y="0" width="60" height="60"/>
  <use id="zoomplus" xlink:href="#zoomPlus" x="17" y="9" data-zoom="in"/>
  <use id="zoomminus" xlink:href="#zoomMin" x="42" y="9" data-zoom="out"/>
  <use id="reset" xlink:href="#resetDef" x="30" y="36" data-reset="true"/>
  <use id="arrowup" xlink:href="#arrowUp" x="0" y="0" data-pan-x="0" data-pan-y="-1"/>
  <use id="arrowright" xlink:href="#arrowRight" x="0" y="0" data-pan-x="1" data-pan-y="0"/>
  <use id="arrowdown" xlink:href="#arrowDown" x="0" y="0" data-pan-x="0" data-pan-y="1"/>
  <use id="arrowleft" xlink:href="#arrowLeft" x="0" y="0" data-pan-x="-1" data-pan-y="0"/>
</g>
<svg viewBox="0 0 15 15" width="100%" height="30px" preserveAspectRatio="xMaxYMin meet">
 <g id="arrow_out" transform="scale(0.3 0.3)">
  <a xlink:href="mainwindow_8cpp__incl_org.svg" target="_base">
   <rect id="button" ry="5" rx="5" y="6" x="6" height="38" width="38"
        fill="#f2f5e9" fill-opacity="0.5" stroke="#606060" stroke-width="1.0"/>
   <path id="arrow"
     d="M 11.500037,31.436501 C 11.940474,20.09759 22.043105,11.32322 32.158766,21.979434 L 37.068811,17.246167 C 37.068811,17.246167 37.088388,32 37.088388,32 L 22.160133,31.978069 C 22.160133,31.978069 26.997745,27.140456 26.997745,27.140456 C 18.528582,18.264221 13.291696,25.230495 11.500037,31.436501 z"
     style="fill:#404040;"/>
  </a>
 </g>
</svg>

<style type='text/css'>
<![CDATA[
[data-mouse-over-selected='false'] { opacity: 0.7; }
[data-mouse-over-selected='true']  { opacity: 1.0; }
]]>
</style>
</svg>
