<?xml version="1.0" encoding="UTF-8" standalone="no"?>
<!DOCTYPE svg PUBLIC "-//W3C//DTD SVG 1.1//EN"
 "http://www.w3.org/Graphics/SVG/1.1/DTD/svg11.dtd">
<!-- Generated by graphviz version 16.1.0 (20260904.0139)
 -->
<!-- Title: cmd_stats Pages: 1 -->
<!--zoomable 103 -->

<svg id="main" version="1.1" xmlns="http://www.w3.org/2000/svg" xmlns:xlink="http://www.w3.org/1999/xlink" xml:space="preserve">

<style type="text/css"><![CDATA[
.node, .edge {opacity: 0.7;}
.node.selected, .edge.selected {opacity: 1;}
.edge:hover path { stroke: red; }
.edge:hover polygon { stroke: red; fill: red; }
]]></style>

<defs>
  <circle id="rim" cx="0" cy="0" r="7"/>
  <circle id="rim2" cx="0" cy="0" r="3.5"/>
  <g id="zoomPlus">
    <use xlink:href="#rim" fill="#404040"><set attributeName="fill" to="#808080" begin="zoomplus.mouseover" end="zoomplus.mouseout"/></use>
    <path d="M-4,0h8M0,-4v8" fill="none" stroke="white" stroke-width="1.5" pointer-events="none"/>
  </g>
  <g id="zoomMin">
    <use xlink:href="#rim" fill="#404040"><set attributeName="fill" to="#808080" begin="zoomminus.mouseover" end="zoomminus.mouseout"/></use>
    <path d="M-4,0h8" fill="none" stroke="white" stroke-width="1.5" pointer-events="none"/>
  </g>
  <g id="arrowUp" transform="translate(30 24)">
    <use xlink:href="#rim"/>
    <path pointer-events="none" fill="none" stroke="white" stroke-width="1.5" d="M0,-3.0v7 M-2.5,-0.5L0,-3.0L2.5,-0.5"/>
  </g>
  <g id="arrowRight" transform="rotate(90) translate(36 -43)">
    <use xlink:href="#rim"/>
    <path pointer-events="none" fill="none" stroke="white" stroke-width="1.5" d="M0,-3.0v7 M-2.5,-0.5L0,-3.0L2.5,-0.5"/>
  </g>
  <g id="arrowDown" transform="rotate(180) translate(-30 -48)">
    <use xlink:href="#rim"/>
    <path pointer-events="none" fill="none" stroke="white" stroke-width="1.5" d="M0,-3.0v7 M-2.5,-0.5L0,-3.0L2.5,-0.5"/>
  </g>
  <g id="arrowLeft" transform="rotate(270) translate(-36 17)">
    <use xlink:href="#rim"/>
    <path pointer-events="none" fill="none" stroke="white" stroke-width="1.5" d="M0,-3.0v7 M-2.5,-0.5L0,-3.0L2.5,-0.5"/>
  </g>
  <g id="resetDef">
    <use xlink:href="#rim2" fill="#404040"><set attributeName="fill" to="#808080" begin="reset.mouseover" end="reset.mouseout"/></use>
  </g>
</defs>
<script type="application/ecmascript" xlink:href="svg.min.js"/>
<svg id="graph" class="graph" data-view-width="816" data-view-height="103" data-section-id="dynsection-17">
<g id="viewport">
<title>cmd_stats</title>
<!-- Node1 -->
<g id="Node000001" class="node">
<title>Node1</title>
<g id="a_Node000001"><a xlink:title=" ">
<polygon fill="#999999" stroke="#666666" points="61.75,-39 0,-39 0,-19 61.75,-19 61.75,-39"/>
<text xml:space="preserve" text-anchor="middle" x="30.88" y="-25.5" font-family="Helvetica,sans-Serif" font-size="10.00">cmd_stats</text>
</a>
</g>
</g>
<!-- Node1&#45;&gt;Node1 -->
<g id="edge1_Node000001_Node000001" class="edge">
<title>Node1&#45;&gt;Node1</title>
<g id="a_edge1_Node000001_Node000001"><a xlink:title=" ">
<path fill="none" stroke="#63b8ff" d="M8.13,-39.34C-1.58,-47.98 6,-57 30.88,-57 44.48,-57 52.91,-54.3 56.17,-50.44"/>
<polygon fill="#63b8ff" stroke="#63b8ff" points="59.61,-49.77 53.96,-40.81 52.79,-51.34 59.61,-49.77"/>
</a>
</g>
</g>
<!-- Node2 -->
<g id="Node000002" class="node">
<title>Node2</title>
<g id="a_Node000002"><a xlink:href="class_database_manager.html#adc77584b498f23cb33c9fc2d0422a73f" target="_top" xlink:title=" ">
<polygon fill="white" stroke="#666666" points="250.25,-58 97.75,-58 97.75,-38 250.25,-38 250.25,-58"/>
<text xml:space="preserve" text-anchor="middle" x="174" y="-44.5" font-family="Helvetica,sans-Serif" font-size="10.00">DatabaseManager::getInstance</text>
</a>
</g>
</g>
<!-- Node1&#45;&gt;Node2 -->
<g id="edge2_Node000001_Node000002" class="edge">
<title>Node1&#45;&gt;Node2</title>
<g id="a_edge2_Node000001_Node000002"><a xlink:title=" ">
<path fill="none" stroke="#63b8ff" d="M62.15,-33.08C69.41,-34.05 77.54,-35.15 85.99,-36.29"/>
<polygon fill="#63b8ff" stroke="#63b8ff" points="85.38,-39.73 95.75,-37.6 86.31,-32.8 85.38,-39.73"/>
</a>
</g>
</g>
<!-- Node7 -->
<g id="Node000007" class="node">
<title>Node7</title>
<g id="a_Node000007"><a xlink:href="class_database_manager.html#a5229d59df08a16101b9b12ae1e4c9d3f" target="_top" xlink:title="Возвращает общую, месячную и активную статистику пользователей.">
<polygon fill="white" stroke="#666666" points="243.12,-20 104.88,-20 104.88,0 243.12,0 243.12,-20"/>
<text xml:space="preserve" text-anchor="middle" x="174" y="-6.5" font-family="Helvetica,sans-Serif" font-size="10.00">DatabaseManager::getStats</text>
</a>
</g>
</g>
<!-- Node1&#45;&gt;Node7 -->
<g id="edge8_Node000001_Node000007" class="edge">
<title>Node1&#45;&gt;Node7</title>
<g id="a_edge8_Node000001_Node000007"><a xlink:title=" ">
<path fill="none" stroke="#63b8ff" d="M62.15,-24.92C71.5,-23.66 82.28,-22.21 93.36,-20.72"/>
<polygon fill="#63b8ff" stroke="#63b8ff" points="93.55,-24.23 103,-19.42 92.62,-17.29 93.55,-24.23"/>
</a>
</g>
</g>
<!-- Node3 -->
<g id="Node000003" class="node">
<title>Node3</title>
<g id="a_Node000003"><a xlink:href="class_database_manager.html#aa162d97472e6c31a4e873adda435dbb6" target="_top" xlink:title=" ">
<polygon fill="white" stroke="#666666" points="429.75,-64 286.25,-64 286.25,-32 429.75,-32 429.75,-64"/>
<text xml:space="preserve" text-anchor="start" x="294.25" y="-50.5" font-family="Helvetica,sans-Serif" font-size="10.00">DatabaseManager::Database</text>
<text xml:space="preserve" text-anchor="middle" x="358" y="-38.5" font-family="Helvetica,sans-Serif" font-size="10.00">Manager</text>
</a>
</g>
</g>
<!-- Node2&#45;&gt;Node3 -->
<g id="edge3_Node000002_Node000003" class="edge">
<title>Node2&#45;&gt;Node3</title>
<g id="a_edge3_Node000002_Node000003"><a xlink:title=" ">
<path fill="none" stroke="#63b8ff" d="M250.6,-48C258.57,-48 266.7,-48 274.73,-48"/>
<polygon fill="#63b8ff" stroke="#63b8ff" points="274.49,-51.5 284.49,-48 274.49,-44.5 274.49,-51.5"/>
</a>
</g>
</g>
<!-- Node4 -->
<g id="Node000004" class="node">
<title>Node4</title>
<g id="a_Node000004"><a xlink:href="class_database_manager.html#af755b98e0f96d65d0ea2a07274f27159" target="_top" xlink:title=" ">
<polygon fill="white" stroke="#666666" points="622,-58 465.75,-58 465.75,-38 622,-38 622,-58"/>
<text xml:space="preserve" text-anchor="middle" x="543.88" y="-44.5" font-family="Helvetica,sans-Serif" font-size="10.00">DatabaseManager::initDatabase</text>
</a>
</g>
</g>
<!-- Node3&#45;&gt;Node4 -->
<g id="edge4_Node000003_Node000004" class="edge">
<title>Node3&#45;&gt;Node4</title>
<g id="a_edge4_Node000003_Node000004"><a xlink:title=" ">
<path fill="none" stroke="#63b8ff" d="M430.09,-48C437.92,-48 445.96,-48 453.98,-48"/>
<polygon fill="#63b8ff" stroke="#63b8ff" points="453.75,-51.5 463.75,-48 453.75,-44.5 453.75,-51.5"/>
</a>
</g>
</g>
<!-- Node5 -->
<g id="Node000005" class="node">
<title>Node5</title>
<g id="a_Node000005"><a xlink:href="class_database_manager.html#a9156430e28c743f5578213041431f7ae" target="_top" xlink:title=" ">
<polygon fill="white" stroke="#666666" points="808.25,-95 658,-95 658,-63 808.25,-63 808.25,-95"/>
<text xml:space="preserve" text-anchor="start" x="666" y="-81.5" font-family="Helvetica,sans-Serif" font-size="10.00">DatabaseManager::initStatistic</text>
<text xml:space="preserve" text-anchor="middle" x="733.12" y="-69.5" font-family="Helvetica,sans-Serif" font-size="10.00">Tables</text>
</a>
</g>
</g>
<!-- Node4&#45;&gt;Node5 -->
<g id="edge5_Node000004_Node000005" class="edge">
<title>Node4&#45;&gt;Node5</title>
<g id="a_edge5_Node000004_Node000005"><a xlink:title=" ">
<path fill="none" stroke="#63b8ff" d="M608.27,-58.5C620.58,-60.53 633.67,-62.7 646.55,-64.83"/>
<polygon fill="#63b8ff" stroke="#63b8ff" points="645.87,-68.27 656.31,-66.45 647.01,-61.36 645.87,-68.27"/>
</a>
</g>
</g>
<!-- Node6 -->
<g id="Node000006" class="node">
<title>Node6</title>
<g id="a_Node000006"><a xlink:href="databasemanager_8cpp.html#a8ff4b8e34d22c2ca10aa6fe31da7cefa" target="_top" xlink:title="Возвращает строковое имя роли.">
<polygon fill="white" stroke="#666666" points="767,-27 699.25,-27 699.25,-7 767,-7 767,-27"/>
<text xml:space="preserve" text-anchor="middle" x="733.12" y="-13.5" font-family="Helvetica,sans-Serif" font-size="10.00">roleToString</text>
</a>
</g>
</g>
<!-- Node4&#45;&gt;Node6 -->
<g id="edge6_Node000004_Node000006" class="edge">
<title>Node4&#45;&gt;Node6</title>
<g id="a_edge6_Node000004_Node000006"><a xlink:title=" ">
<path fill="none" stroke="#63b8ff" d="M608.27,-37.5C634.35,-33.19 663.93,-28.29 687.64,-24.36"/>
<polygon fill="#63b8ff" stroke="#63b8ff" points="687.98,-27.86 697.28,-22.77 686.84,-20.95 687.98,-27.86"/>
</a>
</g>
</g>
<!-- Node6&#45;&gt;Node6 -->
<g id="edge7_Node000006_Node000006" class="edge">
<title>Node6&#45;&gt;Node6</title>
<g id="a_edge7_Node000006_Node000006"><a xlink:title=" ">
<path fill="none" stroke="#63b8ff" d="M703.06,-27.34C690.2,-35.98 700.23,-45 733.12,-45 751.63,-45 762.9,-42.14 766.93,-38.11"/>
<polygon fill="#63b8ff" stroke="#63b8ff" points="770.27,-37.07 763.69,-28.77 763.66,-39.36 770.27,-37.07"/>
</a>
</g>
</g>
</g>
</svg>

<g id="navigator" transform="translate(0 0)" fill="#404254">
  <rect fill="#f2f5e9" fill-opacity="0.5" stroke="#606060" stroke-width=".5" x="0" y="0" width="60" height="60"/>
  <use id="zoomplus" xlink:href="#zoomPlus" x="17" y="9" data-zoom="in"/>
  <use id="zoomminus" xlink:href="#zoomMin" x="42" y="9" data-zoom="out"/>
  <use id="reset" xlink:href="#resetDef" x="30" y="36" data-reset="true"/>
  <use id="arrowup" xlink:href="#arrowUp" x="0" y="0" data-pan-x="0" data-pan-y="-1"/>
  <use id="arrowright" xlink:href="#arrowRight" x="0" y="0" data-pan-x="1" data-pan-y="0"/>
  <use id="arrowdown" xlink:href="#arrowDown" x="0" y="0" data-pan-x="0" data-pan-y="1"/>
  <use id="arrowleft" xlink:href="#arrowLeft" x="0" y="0" data-pan-x="-1" data-pan-y="0"/>
</g>
<svg viewBox="0 0 15 15" width="100%" height="30px" preserveAspectRatio="xMaxYMin meet">
 <g id="arrow_out" transform="scale(0.3 0.3)">
  <a xlink:href="server__functions_8cpp_afff7fee86461ffb5eba5ef712b323668_cgraph_org.svg" target="_base">
   <rect id="button" ry="5" rx="5" y="6" x="6" height="38" width="38"
        fill="#f2f5e9" fill-opacity="0.5" stroke="#606060" stroke-width="1.0"/>
   <path id="arrow"
     d="M 11.500037,31.436501 C 11.940474,20.09759 22.043105,11.32322 32.158766,21.979434 L 37.068811,17.246167 C 37.068811,17.246167 37.088388,32 37.088388,32 L 22.160133,31.978069 C 22.160133,31.978069 26.997745,27.140456 26.997745,27.140456 C 18.528582,18.264221 13.291696,25.230495 11.500037,31.436501 z"
     style="fill:#404040;"/>
  </a>
 </g>
</svg>

<style type='text/css'>
<![CDATA[
[data-mouse-over-selected='false'] { opacity: 0.7; }
[data-mouse-over-selected='true']  { opacity: 1.0; }
]]>
</style>
</svg>
