<?xml version="1.0" encoding="UTF-8" standalone="no"?>
<!DOCTYPE svg PUBLIC "-//W3C//DTD SVG 1.1//EN"
 "http://www.w3.org/Graphics/SVG/1.1/DTD/svg11.dtd">
<!-- Generated by graphviz version 16.1.0 (20260904.0139)
 -->
<!-- Title: cmd_auth Pages: 1 -->
<!--zoomable 234 -->

<svg id="main" version="1.1" xmlns="http://www.w3.org/2000/svg" xmlns:xlink="http://www.w3.org/1999/xlink" xml:space="preserve">

<style type="text/css"><![CDATA[
.node, .edge {opacity: 0.7;}
.node.selected, .edge.selected {opacity: 1;}
.edge:hover path { stroke: red; }
.edge:hover polygon { stroke: red; fill: red; }
]]></style>

<defs>
  <circle id="rim" cx="0" cy="0" r="7"/>
  <circle id="rim2" cx="0" cy="0" r="3.5"/>
  <g id="zoomPlus">
    <use xlink:href="#rim" fill="#404040"><set attributeName="fill" to="#808080" begin="zoomplus.mouseover" end="zoomplus.mouseout"/></use>
    <path d="M-4,0h8M0,-4v8" fill="none" stroke="white" stroke-width="1.5" pointer-events="none"/>
  </g>
  <g id="zoomMin">
    <use xlink:href="#rim" fill="#404040"><set attributeName="fill" to="#808080" begin="zoomminus.mouseover" end="zoomminus.mouseout"/></use>
    <path d="M-4,0h8" fill="none" stroke="white" stroke-width="1.5" pointer-events="none"/>
  </g>
  <g id="arrowUp" transform="translate(30 24)">
    <use xlink:href="#rim"/>
    <path pointer-events="none" fill="none" stroke="white" stroke-width="1.5" d="M0,-3.0v7 M-2.5,-0.5L0,-3.0L2.5,-0.5"/>
  </g>
  <g id="arrowRight" transform="rotate(90) translate(36 -43)">
    <use xlink:href="#rim"/>
    <path pointer-events="none" fill="none" stroke="white" stroke-width="1.5" d="M0,-3.0v7 M-2.5,-0.5L0,-3.0L2.5,-0.5"/>
  </g>
  <g id="arrowDown" transform="rotate(180) translate(-30 -48)">
    <use xlink:href="#rim"/>
    <path pointer-events="none" fill="none" stroke="white" stroke-width="1.5" d="M0,-3.0v7 M-2.5,-0.5L0,-3.0L2.5,-0.5"/>
  </g>
  <g id="arrowLeft" transform="rotate(270) translate(-36 17)">
    <use xlink:href="#rim"/>
    <path pointer-events="none" fill="none" stroke="white" stroke-width="1.5" d="M0,-3.0v7 M-2.5,-0.5L0,-3.0L2.5,-0.5"/>
  </g>
  <g id="resetDef">
    <use xlink:href="#rim2" fill="#404040"><set attributeName="fill" to="#808080" begin="reset.mouseover" end="reset.mouseout"/></use>
  </g>
</defs>
<script type="application/ecmascript" xlink:href="svg.min.js"/>
<svg id="graph" class="graph" data-view-width="843" data-view-height="234" data-section-id="dynsection-4">
<g id="viewport">
<title>cmd_auth</title>
<!-- Node1 -->
<g id="Node000001" class="node">
<title>Node1</title>
<g id="a_Node000001"><a xlink:title=" ">
<polygon fill="#999999" stroke="#666666" points="58.75,-114 0,-114 0,-94 58.75,-94 58.75,-114"/>
<text xml:space="preserve" text-anchor="middle" x="29.38" y="-100.5" font-family="Helvetica,sans-Serif" font-size="10.00">cmd_auth</text>
</a>
</g>
</g>
<!-- Node1&#45;&gt;Node1 -->
<g id="edge5_Node000001_Node000001" class="edge">
<title>Node1&#45;&gt;Node1</title>
<g id="a_edge5_Node000001_Node000001"><a xlink:title=" ">
<path fill="none" stroke="#63b8ff" d="M6.57,-114.34C-3.17,-122.98 4.43,-132 29.38,-132 43.02,-132 51.47,-129.3 54.74,-125.44"/>
<polygon fill="#63b8ff" stroke="#63b8ff" points="58.17,-124.77 52.52,-115.81 51.35,-126.34 58.17,-124.77"/>
</a>
</g>
</g>
<!-- Node2 -->
<g id="Node000002" class="node">
<title>Node2</title>
<g id="a_Node000002"><a xlink:href="class_database_manager.html#ac620ee7e0f3e7e4dfb36d88934d33500" target="_top" xlink:title="Проверяет учётные данные и возвращает роль пользователя.">
<polygon fill="white" stroke="#666666" points="243.5,-120 102.25,-120 102.25,-88 243.5,-88 243.5,-120"/>
<text xml:space="preserve" text-anchor="start" x="110.25" y="-106.5" font-family="Helvetica,sans-Serif" font-size="10.00">DatabaseManager::authUser</text>
<text xml:space="preserve" text-anchor="middle" x="172.88" y="-94.5" font-family="Helvetica,sans-Serif" font-size="10.00">WithRole</text>
</a>
</g>
</g>
<!-- Node1&#45;&gt;Node2 -->
<g id="edge1_Node000001_Node000002" class="edge">
<title>Node1&#45;&gt;Node2</title>
<g id="a_edge1_Node000001_Node000002"><a xlink:title=" ">
<path fill="none" stroke="#63b8ff" d="M59.01,-104C68.4,-104 79.34,-104 90.65,-104"/>
<polygon fill="#63b8ff" stroke="#63b8ff" points="90.52,-107.5 100.52,-104 90.52,-100.5 90.52,-107.5"/>
</a>
</g>
</g>
<!-- Node5 -->
<g id="Node000005" class="node">
<title>Node5</title>
<g id="a_Node000005"><a xlink:href="class_database_manager.html#adc77584b498f23cb33c9fc2d0422a73f" target="_top" xlink:title=" ">
<polygon fill="white" stroke="#666666" points="249.12,-199 96.62,-199 96.62,-179 249.12,-179 249.12,-199"/>
<text xml:space="preserve" text-anchor="middle" x="172.88" y="-185.5" font-family="Helvetica,sans-Serif" font-size="10.00">DatabaseManager::getInstance</text>
</a>
</g>
</g>
<!-- Node1&#45;&gt;Node5 -->
<g id="edge6_Node000001_Node000005" class="edge">
<title>Node1&#45;&gt;Node5</title>
<g id="a_edge6_Node000001_Node000005"><a xlink:title=" ">
<path fill="none" stroke="#63b8ff" d="M39.43,-114.37C51.08,-127.16 72.49,-148.81 94.75,-162 103.08,-166.94 112.46,-171.16 121.73,-174.71"/>
<polygon fill="#63b8ff" stroke="#63b8ff" points="120.47,-177.97 131.06,-178.04 122.82,-171.38 120.47,-177.97"/>
</a>
</g>
</g>
<!-- Node9 -->
<g id="Node000009" class="node">
<title>Node9</title>
<g id="a_Node000009"><a xlink:href="databasemanager_8cpp.html#a8ff4b8e34d22c2ca10aa6fe31da7cefa" target="_top" xlink:title="Возвращает строковое имя роли.">
<polygon fill="white" stroke="#666666" points="794,-158 726.25,-158 726.25,-138 794,-138 794,-158"/>
<text xml:space="preserve" text-anchor="middle" x="760.12" y="-144.5" font-family="Helvetica,sans-Serif" font-size="10.00">roleToString</text>
</a>
</g>
</g>
<!-- Node1&#45;&gt;Node9 -->
<g id="edge15_Node000001_Node000009" class="edge">
<title>Node1&#45;&gt;Node9</title>
<g id="a_edge15_Node000001_Node000009"><a xlink:title=" ">
<path fill="none" stroke="#63b8ff" d="M51.86,-114.48C64.12,-119.9 79.94,-126.01 94.75,-129 323.95,-175.34 606.61,-160.22 714.46,-151.91"/>
<polygon fill="#63b8ff" stroke="#63b8ff" points="714.64,-155.4 724.33,-151.12 714.08,-148.42 714.64,-155.4"/>
</a>
</g>
</g>
<!-- Node10 -->
<g id="Node000010" class="node">
<title>Node10</title>
<g id="a_Node000010"><a xlink:href="class_database_manager.html#a5527f21f871e0a848b3f4082fbf1dac1" target="_top" xlink:title="Возвращает электронную почту пользователя.">
<polygon fill="white" stroke="#666666" points="240.88,-70 104.88,-70 104.88,-38 240.88,-38 240.88,-70"/>
<text xml:space="preserve" text-anchor="start" x="112.88" y="-56.5" font-family="Helvetica,sans-Serif" font-size="10.00">DatabaseManager::getUser</text>
<text xml:space="preserve" text-anchor="middle" x="172.88" y="-44.5" font-family="Helvetica,sans-Serif" font-size="10.00">Email</text>
</a>
</g>
</g>
<!-- Node1&#45;&gt;Node10 -->
<g id="edge12_Node000001_Node000010" class="edge">
<title>Node1&#45;&gt;Node10</title>
<g id="a_edge12_Node000001_Node000010"><a xlink:title=" ">
<path fill="none" stroke="#63b8ff" d="M56.25,-93.57C67.95,-88.95 81.99,-83.54 94.75,-79 99.43,-77.34 104.28,-75.66 109.17,-74"/>
<polygon fill="#63b8ff" stroke="#63b8ff" points="110.07,-77.38 118.45,-70.89 107.85,-70.74 110.07,-77.38"/>
</a>
</g>
</g>
<!-- Node11 -->
<g id="Node000011" class="node">
<title>Node11</title>
<g id="a_Node000011"><a xlink:href="class_database_manager.html#ab38c297366f0b99ddef168168cceb118" target="_top" xlink:title="Возвращает роль пользователя по логину.">
<polygon fill="white" stroke="#666666" points="251,-20 94.75,-20 94.75,0 251,0 251,-20"/>
<text xml:space="preserve" text-anchor="middle" x="172.88" y="-6.5" font-family="Helvetica,sans-Serif" font-size="10.00">DatabaseManager::getUserRole</text>
</a>
</g>
</g>
<!-- Node1&#45;&gt;Node11 -->
<g id="edge13_Node000001_Node000011" class="edge">
<title>Node1&#45;&gt;Node11</title>
<g id="a_edge13_Node000001_Node000011"><a xlink:title=" ">
<path fill="none" stroke="#63b8ff" d="M36.24,-93.73C46.13,-77.39 67.71,-45.63 94.75,-29 97.22,-27.48 99.8,-26.09 102.46,-24.8"/>
<polygon fill="#63b8ff" stroke="#63b8ff" points="103.76,-28.05 111.64,-20.96 101.06,-21.59 103.76,-28.05"/>
</a>
</g>
</g>
<!-- Node3 -->
<g id="Node000003" class="node">
<title>Node3</title>
<g id="a_Node000003"><a xlink:href="databasemanager_8cpp.html#a272e7e4a9d59f5cce7c678533de77e73" target="_top" xlink:title="Преобразует строковое имя роли в UserRole.">
<polygon fill="white" stroke="#666666" points="407.25,-39 336.5,-39 336.5,-19 407.25,-19 407.25,-39"/>
<text xml:space="preserve" text-anchor="middle" x="371.88" y="-25.5" font-family="Helvetica,sans-Serif" font-size="10.00">stringToRole</text>
</a>
</g>
</g>
<!-- Node2&#45;&gt;Node3 -->
<g id="edge2_Node000002_Node000003" class="edge">
<title>Node2&#45;&gt;Node3</title>
<g id="a_edge2_Node000002_Node000003"><a xlink:title=" ">
<path fill="none" stroke="#63b8ff" d="M226.35,-87.63C234.63,-84.86 243.08,-81.93 251,-79 280.53,-68.08 313.5,-54.2 337.38,-43.83"/>
<polygon fill="#63b8ff" stroke="#63b8ff" points="338.52,-47.16 346.28,-39.95 335.72,-40.74 338.52,-47.16"/>
</a>
</g>
</g>
<!-- Node4 -->
<g id="Node000004" class="node">
<title>Node4</title>
<g id="a_Node000004"><a xlink:href="class_database_manager.html#a40e408d6b0e58b853a7699128215927e" target="_top" xlink:title=" ">
<polygon fill="white" stroke="#666666" points="456.75,-114 287,-114 287,-94 456.75,-94 456.75,-114"/>
<text xml:space="preserve" text-anchor="middle" x="371.88" y="-100.5" font-family="Helvetica,sans-Serif" font-size="10.00">DatabaseManager::updateLastAuth</text>
</a>
</g>
</g>
<!-- Node2&#45;&gt;Node4 -->
<g id="edge4_Node000002_Node000004" class="edge">
<title>Node2&#45;&gt;Node4</title>
<g id="a_edge4_Node000002_Node000004"><a xlink:title=" ">
<path fill="none" stroke="#63b8ff" d="M243.88,-104C254.04,-104 264.63,-104 275.18,-104"/>
<polygon fill="#63b8ff" stroke="#63b8ff" points="275.08,-107.5 285.08,-104 275.08,-100.5 275.08,-107.5"/>
</a>
</g>
</g>
<!-- Node3&#45;&gt;Node3 -->
<g id="edge3_Node000003_Node000003" class="edge">
<title>Node3&#45;&gt;Node3</title>
<g id="a_edge3_Node000003_Node000003"><a xlink:title=" ">
<path fill="none" stroke="#63b8ff" d="M340.26,-39.34C326.74,-47.98 337.28,-57 371.88,-57 391.33,-57 403.18,-54.14 407.42,-50.11"/>
<polygon fill="#63b8ff" stroke="#63b8ff" points="410.72,-48.96 404.01,-40.76 404.15,-51.35 410.72,-48.96"/>
</a>
</g>
</g>
<!-- Node6 -->
<g id="Node000006" class="node">
<title>Node6</title>
<g id="a_Node000006"><a xlink:href="class_database_manager.html#aa162d97472e6c31a4e873adda435dbb6" target="_top" xlink:title=" ">
<polygon fill="white" stroke="#666666" points="443.62,-208 300.12,-208 300.12,-176 443.62,-176 443.62,-208"/>
<text xml:space="preserve" text-anchor="start" x="308.12" y="-194.5" font-family="Helvetica,sans-Serif" font-size="10.00">DatabaseManager::Database</text>
<text xml:space="preserve" text-anchor="middle" x="371.88" y="-182.5" font-family="Helvetica,sans-Serif" font-size="10.00">Manager</text>
</a>
</g>
</g>
<!-- Node5&#45;&gt;Node6 -->
<g id="edge7_Node000005_Node000006" class="edge">
<title>Node5&#45;&gt;Node6</title>
<g id="a_edge7_Node000005_Node000006"><a xlink:title=" ">
<path fill="none" stroke="#63b8ff" d="M249.48,-190.15C262.23,-190.35 275.53,-190.55 288.45,-190.74"/>
<polygon fill="#63b8ff" stroke="#63b8ff" points="288.12,-194.24 298.17,-190.89 288.22,-187.24 288.12,-194.24"/>
</a>
</g>
</g>
<!-- Node7 -->
<g id="Node000007" class="node">
<title>Node7</title>
<g id="a_Node000007"><a xlink:href="class_database_manager.html#af755b98e0f96d65d0ea2a07274f27159" target="_top" xlink:title=" ">
<polygon fill="white" stroke="#666666" points="649,-202 492.75,-202 492.75,-182 649,-182 649,-202"/>
<text xml:space="preserve" text-anchor="middle" x="570.88" y="-188.5" font-family="Helvetica,sans-Serif" font-size="10.00">DatabaseManager::initDatabase</text>
</a>
</g>
</g>
<!-- Node6&#45;&gt;Node7 -->
<g id="edge8_Node000006_Node000007" class="edge">
<title>Node6&#45;&gt;Node7</title>
<g id="a_edge8_Node000006_Node000007"><a xlink:title=" ">
<path fill="none" stroke="#63b8ff" d="M444,-192C456.06,-192 468.72,-192 481.18,-192"/>
<polygon fill="#63b8ff" stroke="#63b8ff" points="481.01,-195.5 491.01,-192 481.01,-188.5 481.01,-195.5"/>
</a>
</g>
</g>
<!-- Node8 -->
<g id="Node000008" class="node">
<title>Node8</title>
<g id="a_Node000008"><a xlink:href="class_database_manager.html#a9156430e28c743f5578213041431f7ae" target="_top" xlink:title=" ">
<polygon fill="white" stroke="#666666" points="835.25,-226 685,-226 685,-194 835.25,-194 835.25,-226"/>
<text xml:space="preserve" text-anchor="start" x="693" y="-212.5" font-family="Helvetica,sans-Serif" font-size="10.00">DatabaseManager::initStatistic</text>
<text xml:space="preserve" text-anchor="middle" x="760.12" y="-200.5" font-family="Helvetica,sans-Serif" font-size="10.00">Tables</text>
</a>
</g>
</g>
<!-- Node7&#45;&gt;Node8 -->
<g id="edge9_Node000007_Node000008" class="edge">
<title>Node7&#45;&gt;Node8</title>
<g id="a_edge9_Node000007_Node000008"><a xlink:title=" ">
<path fill="none" stroke="#63b8ff" d="M649.39,-199.45C657.32,-200.21 665.41,-200.99 673.43,-201.76"/>
<polygon fill="#63b8ff" stroke="#63b8ff" points="672.88,-205.23 683.17,-202.7 673.55,-198.26 672.88,-205.23"/>
</a>
</g>
</g>
<!-- Node7&#45;&gt;Node9 -->
<g id="edge10_Node000007_Node000009" class="edge">
<title>Node7&#45;&gt;Node9</title>
<g id="a_edge10_Node000007_Node000009"><a xlink:title=" ">
<path fill="none" stroke="#63b8ff" d="M616.25,-181.57C646.07,-174.56 685.22,-165.37 714.99,-158.37"/>
<polygon fill="#63b8ff" stroke="#63b8ff" points="715.5,-161.85 724.43,-156.15 713.9,-155.03 715.5,-161.85"/>
</a>
</g>
</g>
<!-- Node9&#45;&gt;Node9 -->
<g id="edge11_Node000009_Node000009" class="edge">
<title>Node9&#45;&gt;Node9</title>
<g id="a_edge11_Node000009_Node000009"><a xlink:title=" ">
<path fill="none" stroke="#63b8ff" d="M730.06,-158.34C717.2,-166.98 727.23,-176 760.12,-176 778.63,-176 789.9,-173.14 793.93,-169.11"/>
<polygon fill="#63b8ff" stroke="#63b8ff" points="797.27,-168.07 790.69,-159.77 790.66,-170.36 797.27,-168.07"/>
</a>
</g>
</g>
<!-- Node11&#45;&gt;Node3 -->
<g id="edge14_Node000011_Node000003" class="edge">
<title>Node11&#45;&gt;Node3</title>
<g id="a_edge14_Node000011_Node000003"><a xlink:title=" ">
<path fill="none" stroke="#63b8ff" d="M251.45,-17.48C276.28,-19.88 302.96,-22.45 324.8,-24.56"/>
<polygon fill="#63b8ff" stroke="#63b8ff" points="324.26,-28.02 334.55,-25.5 324.94,-21.05 324.26,-28.02"/>
</a>
</g>
</g>
</g>
</svg>

<g id="navigator" transform="translate(0 0)" fill="#404254">
  <rect fill="#f2f5e9" fill-opacity="0.5" stroke="#606060" stroke-width=".5" x="0" y="0" width="60" height="60"/>
  <use id="zoomplus" xlink:href="#zoomPlus" x="17" y="9" data-zoom="in"/>
  <use id="zoomminus" xlink:href="#zoomMin" x="42" y="9" data-zoom="out"/>
  <use id="reset" xlink:href="#resetDef" x="30" y="36" data-reset="true"/>
  <use id="arrowup" xlink:href="#arrowUp" x="0" y="0" data-pan-x="0" data-pan-y="-1"/>
  <use id="arrowright" xlink:href="#arrowRight" x="0" y="0" data-pan-x="1" data-pan-y="0"/>
  <use id="arrowdown" xlink:href="#arrowDown" x="0" y="0" data-pan-x="0" data-pan-y="1"/>
  <use id="arrowleft" xlink:href="#arrowLeft" x="0" y="0" data-pan-x="-1" data-pan-y="0"/>
</g>
<svg viewBox="0 0 15 15" width="100%" height="30px" preserveAspectRatio="xMaxYMin meet">
 <g id="arrow_out" transform="scale(0.3 0.3)">
  <a xlink:href="server__functions_8h_a769c508f2e715dd2e712066863088176_cgraph_org.svg" target="_base">
   <rect id="button" ry="5" rx="5" y="6" x="6" height="38" width="38"
        fill="#f2f5e9" fill-opacity="0.5" stroke="#606060" stroke-width="1.0"/>
   <path id="arrow"
     d="M 11.500037,31.436501 C 11.940474,20.09759 22.043105,11.32322 32.158766,21.979434 L 37.068811,17.246167 C 37.068811,17.246167 37.088388,32 37.088388,32 L 22.160133,31.978069 C 22.160133,31.978069 26.997745,27.140456 26.997745,27.140456 C 18.528582,18.264221 13.291696,25.230495 11.500037,31.436501 z"
     style="fill:#404040;"/>
  </a>
 </g>
</svg>

<style type='text/css'>
<![CDATA[
[data-mouse-over-selected='false'] { opacity: 0.7; }
[data-mouse-over-selected='true']  { opacity: 1.0; }
]]>
</style>
</svg>
