<?xml version="1.0" encoding="UTF-8" standalone="no"?>
<!DOCTYPE svg PUBLIC "-//W3C//DTD SVG 1.1//EN"
 "http://www.w3.org/Graphics/SVG/1.1/DTD/svg11.dtd">
<!-- Generated by graphviz version 16.1.0 (20260904.0139)
 -->
<!-- Title: task2_generate Pages: 1 -->
<svg width="201pt" height="84pt"
 viewBox="0.00 0.00 201.00 84.00" xmlns="http://www.w3.org/2000/svg" xmlns:xlink="http://www.w3.org/1999/xlink">

<svg id="main" version="1.1" xmlns="http://www.w3.org/2000/svg" xmlns:xlink="http://www.w3.org/1999/xlink" xml:space="preserve">

<style type="text/css"><![CDATA[
.node, .edge {opacity: 0.7;}
.node.selected, .edge.selected {opacity: 1;}
.edge:hover path { stroke: red; }
.edge:hover polygon { stroke: red; fill: red; }
]]></style>
<script type="application/ecmascript" xlink:href="svg.min.js"/>
<svg id="graph" class="graph">
<g id="graph0" class="graph" transform="scale(1 1) rotate(0) translate(4 80)">
<title>task2_generate</title>
<!-- Node1 -->
<g id="Node000001" class="node">
<title>Node1</title>
<g id="a_Node000001"><a xlink:title="Создаёт задачу на вычисление первой итерации метода Ньютона.">
<polygon fill="#999999" stroke="#666666" points="82.75,-39 0,-39 0,-19 82.75,-19 82.75,-39"/>
<text xml:space="preserve" text-anchor="middle" x="41.38" y="-25.5" font-family="Helvetica,sans-Serif" font-size="10.00">task2_generate</text>
</a>
</g>
</g>
<!-- Node1&#45;&gt;Node1 -->
<g id="edge4_Node000001_Node000001" class="edge">
<title>Node1&#45;&gt;Node1</title>
<g id="a_edge4_Node000001_Node000001"><a xlink:title=" ">
<path fill="none" stroke="#63b8ff" d="M23.22,-39.34C15.46,-47.98 21.52,-57 41.38,-57 52.24,-57 58.97,-54.3 61.57,-50.44"/>
<polygon fill="#63b8ff" stroke="#63b8ff" points="65.05,-50.03 59.8,-40.83 58.17,-51.3 65.05,-50.03"/>
</a>
</g>
</g>
<!-- Node2 -->
<g id="Node000002" class="node">
<title>Node2</title>
<g id="a_Node000002"><a xlink:href="task2_8cpp.html#aa52e367ebb0da21b5ea1227cfd1b3c69" target="_top" xlink:title=" ">
<polygon fill="white" stroke="#666666" points="192.5,-58 118.75,-58 118.75,-38 192.5,-38 192.5,-58"/>
<text xml:space="preserve" text-anchor="middle" x="155.62" y="-44.5" font-family="Helvetica,sans-Serif" font-size="10.00">buildFunction</text>
</a>
</g>
</g>
<!-- Node1&#45;&gt;Node2 -->
<g id="edge1_Node000001_Node000002" class="edge">
<title>Node1&#45;&gt;Node2</title>
<g id="a_edge1_Node000001_Node000002"><a xlink:title=" ">
<path fill="none" stroke="#63b8ff" d="M83.22,-35.91C91.06,-37.24 99.33,-38.64 107.35,-40"/>
<polygon fill="#63b8ff" stroke="#63b8ff" points="106.52,-43.41 116.96,-41.63 107.69,-36.51 106.52,-43.41"/>
</a>
</g>
</g>
<!-- Node3 -->
<g id="Node000003" class="node">
<title>Node3</title>
<g id="a_Node000003"><a xlink:href="task2_8cpp.html#adda1eda52f6f5e85f26c6a325e8268da" target="_top" xlink:title=" ">
<polygon fill="white" stroke="#666666" points="173.38,-20 137.88,-20 137.88,0 173.38,0 173.38,-20"/>
<text xml:space="preserve" text-anchor="middle" x="155.62" y="-6.5" font-family="Helvetica,sans-Serif" font-size="10.00">fmt4</text>
</a>
</g>
</g>
<!-- Node1&#45;&gt;Node3 -->
<g id="edge3_Node000001_Node000003" class="edge">
<title>Node1&#45;&gt;Node3</title>
<g id="a_edge3_Node000001_Node000003"><a xlink:title=" ">
<path fill="none" stroke="#63b8ff" d="M83.22,-22.09C97.52,-19.67 113.25,-17 126.31,-14.79"/>
<polygon fill="#63b8ff" stroke="#63b8ff" points="126.65,-18.28 135.93,-13.16 125.48,-11.38 126.65,-18.28"/>
</a>
</g>
</g>
<!-- Node2&#45;&gt;Node2 -->
<g id="edge2_Node000002_Node000002" class="edge">
<title>Node2&#45;&gt;Node2</title>
<g id="a_edge2_Node000002_Node000002"><a xlink:title=" ">
<path fill="none" stroke="#63b8ff" d="M137.47,-58.34C129.71,-66.98 135.77,-76 155.62,-76 166.49,-76 173.22,-73.3 175.82,-69.44"/>
<polygon fill="#63b8ff" stroke="#63b8ff" points="179.3,-69.03 174.05,-59.83 172.42,-70.3 179.3,-69.03"/>
</a>
</g>
</g>
</g>
</svg>
</svg>

<style type='text/css'>
<![CDATA[
[data-mouse-over-selected='false'] { opacity: 0.7; }
[data-mouse-over-selected='true']  { opacity: 1.0; }
]]>
</style>
</svg>
